<svg xmlns="http://www.w3.org/2000/svg" width="74.189" height="74.189" viewBox="0 0 74.189 74.189"><path d="M34.662 74.189h-1.216a.608.608 0 110-1.216h1.216a.608.608 0 010 1.216zM37.095 55.946a18.916 18.916 0 01-5.027-.7.61.61 0 01-.446-.586v-6.032a12.739 12.739 0 01-6.062-6.062h-6.032a.608.608 0 01-.586-.446 18.45 18.45 0 010-10.054.608.608 0 01.586-.445h6.032a12.764 12.764 0 0123.068 0h6.034a.609.609 0 01.586.445 18.449 18.449 0 010 10.054.609.609 0 01-.586.446h-6.034a12.742 12.742 0 01-6.06 6.062v6.036a.61.61 0 01-.446.586 18.931 18.931 0 01-5.027.696zm-4.257-1.754a17.217 17.217 0 008.513 0v-5.955a.61.61 0 01.365-.557 11.537 11.537 0 005.964-5.964.606.606 0 01.557-.365h5.958a17.122 17.122 0 000-8.513H48.24a.608.608 0 01-.557-.365 11.55 11.55 0 00-21.173 0 .607.607 0 01-.557.365h-5.958a17.159 17.159 0 000 8.513h5.955a.605.605 0 01.557.365 11.543 11.543 0 005.966 5.964.61.61 0 01.365.557z" fill="#263238"/><path d="M37.095 5.473a31.622 31.622 0 1031.622 31.622A31.621 31.621 0 0037.095 5.473zm4.865 52.673v-.984a19.764 19.764 0 01-9.73 0v.984a3.051 3.051 0 01-4.138 2.844 25.594 25.594 0 01-14.894-14.894 3.051 3.051 0 012.844-4.136h.984a19.8 19.8 0 010-9.73h-.986a3.033 3.033 0 01-2.874-4.048 25.532 25.532 0 0147.858 0 3.033 3.033 0 01-2.875 4.048h-.986a19.764 19.764 0 010 9.73h.984a3.05 3.05 0 012.844 4.136A25.594 25.594 0 0146.097 60.99a3.05 3.05 0 01-4.138-2.844z" fill="#59d8fd"/><path fill="#edfafe" d="M31.595 34.594h11v5h-11z"/><path d="M37.095 69.324a32.23 32.23 0 1132.23-32.23 32.266 32.266 0 01-32.23 32.23zm0-63.243a31.013 31.013 0 1031.013 31.013A31.048 31.048 0 0037.095 6.081zm-7.918 55.715a3.694 3.694 0 01-1.3-.237 26.145 26.145 0 01-15.246-15.254 3.672 3.672 0 01.414-3.387 3.6 3.6 0 013-1.571h.984a.608.608 0 010 1.216h-.984a2.4 2.4 0 00-2 1.047 2.427 2.427 0 00-.277 2.267 24.934 24.934 0 0014.54 14.539 2.431 2.431 0 002.267-.277 2.4 2.4 0 001.047-2v-.984a.608.608 0 011.216 0v.984a3.6 3.6 0 01-1.571 3 3.671 3.671 0 01-2.09.657zm15.835 0a3.671 3.671 0 01-2.089-.652 3.6 3.6 0 01-1.571-3v-.984a.608.608 0 011.216 0v.984a2.4 2.4 0 001.047 2 2.425 2.425 0 002.266.277 24.931 24.931 0 0014.54-14.539 2.43 2.43 0 00-.276-2.267 2.4 2.4 0 00-2-1.047h-.984a.608.608 0 010-1.216h.984a3.6 3.6 0 013 1.571 3.676 3.676 0 01.415 3.387 26.147 26.147 0 01-15.249 15.249 3.719 3.719 0 01-1.294.237zm13.136-28.958h-.986a.608.608 0 010-1.216h.986a2.46 2.46 0 002.021-1.062 2.325 2.325 0 00.283-2.166 24.924 24.924 0 00-46.718 0 2.325 2.325 0 00.283 2.166 2.462 2.462 0 002.021 1.062h.986a.608.608 0 010 1.216h-.986a3.685 3.685 0 01-3.021-1.584 3.529 3.529 0 01-.423-3.285 26.14 26.14 0 0149 0 3.529 3.529 0 01-.423 3.285 3.684 3.684 0 01-3.022 1.584z" fill="#263238"/><path d="M41.957 40.135h-9.73a1.827 1.827 0 01-1.824-1.824v-2.432a1.826 1.826 0 011.824-1.824h9.73a1.827 1.827 0 011.824 1.824v2.432a1.827 1.827 0 01-1.824 1.824zm-9.73-4.865a.608.608 0 00-.608.608v2.432a.608.608 0 00.608.608h9.73a.608.608 0 00.608-.608v-2.432a.608.608 0 00-.608-.608zM.608 37.703A.608.608 0 010 37.095 37.136 37.136 0 0137.095 0a.608.608 0 010 1.216A35.918 35.918 0 001.217 37.094a.608.608 0 01-.609.609zM40.743 1.216h-1.216a.608.608 0 010-1.216h1.216a.608.608 0 010 1.216zM37.094 74.189a.608.608 0 110-1.216 35.92 35.92 0 0035.878-35.878.608.608 0 111.216 0 37.136 37.136 0 01-37.094 37.094zM62.635 6.081a.608.608 0 01-.608-.608V.608a.608.608 0 011.216 0v4.865a.608.608 0 01-.608.608z" fill="#263238"/><path d="M65.067 3.648h-4.865a.608.608 0 010-1.216h4.865a.608.608 0 110 1.216zM71.147 14.595a.608.608 0 01-.608-.608V9.122a.608.608 0 01.608-.608.608.608 0 01.608.608v4.865a.608.608 0 01-.608.608z" fill="#263238"/><path d="M73.581 12.162h-4.865a.608.608 0 010-1.216h4.865a.608.608 0 010 1.216z" fill="#263238"/></svg>