<svg xmlns="http://www.w3.org/2000/svg" width="93.795" height="49.828" viewBox="0 0 93.795 49.828"><path d="M15.388 49.828H8.06A8.071 8.071 0 010 41.768V8.061A8.071 8.071 0 018.06.001h7.328a8.07 8.07 0 018.06 8.06v33.707a8.07 8.07 0 01-8.06 8.06zM8.06 1.465A6.6 6.6 0 001.465 8.06v33.707a6.6 6.6 0 006.595 6.595h7.328a6.6 6.6 0 006.595-6.595V8.06a6.6 6.6 0 00-6.595-6.595z" fill="#263238"/><path d="M9.893 46.897a.733.733 0 01-.733-.733v-42.5a.733.733 0 111.466 0v42.5a.732.732 0 01-.733.733zM13.556 46.897a.733.733 0 01-.733-.733v-42.5a.733.733 0 111.466 0v42.5a.732.732 0 01-.733.733zM.733 11.724a.733.733 0 01-.312-1.4L6.65 7.393a.732.732 0 11.624 1.325l-6.229 2.931a.734.734 0 01-.312.075zM.733 21.982a.732.732 0 01-.312-1.4l6.229-2.931a.732.732 0 11.624 1.325l-6.229 2.931a.734.734 0 01-.312.075zM.733 32.241a.733.733 0 01-.312-1.4L6.65 27.91a.732.732 0 11.624 1.325l-6.229 2.931a.734.734 0 01-.312.075zM.733 42.501a.733.733 0 01-.312-1.4L6.65 38.17a.732.732 0 11.624 1.325l-6.229 2.931a.734.734 0 01-.312.075zM22.715 11.724a.745.745 0 01-.312-.07l-6.229-2.931a.732.732 0 01.624-1.325l6.229 2.931a.732.732 0 01-.312 1.4zM22.715 21.982a.745.745 0 01-.312-.07l-6.229-2.931a.732.732 0 01.624-1.325l6.229 2.931a.732.732 0 01-.312 1.4zM22.715 32.241a.745.745 0 01-.312-.07l-6.229-2.931a.732.732 0 01.624-1.325l6.229 2.931a.732.732 0 01-.312 1.4zM22.715 42.501a.745.745 0 01-.312-.07L16.174 39.5a.732.732 0 01.624-1.325l6.229 2.931a.732.732 0 01-.312 1.4zM80.238 46.897a.733.733 0 01-.733-.733v-42.5a.733.733 0 111.466 0v42.5a.732.732 0 01-.733.733zM83.902 46.897a.733.733 0 01-.733-.733v-42.5a.733.733 0 111.465 0v42.5a.732.732 0 01-.732.733zM71.079 11.724a.733.733 0 01-.312-1.4l6.229-2.931a.732.732 0 11.624 1.325l-6.229 2.931a.734.734 0 01-.312.075zM71.079 21.982a.732.732 0 01-.312-1.4l6.229-2.931a.732.732 0 11.624 1.325l-6.229 2.931a.734.734 0 01-.312.075zM71.079 32.241a.733.733 0 01-.312-1.4l6.229-2.931a.732.732 0 11.624 1.325l-6.229 2.931a.734.734 0 01-.312.075zM71.079 42.501a.733.733 0 01-.312-1.4l6.229-2.931a.732.732 0 11.624 1.325l-6.229 2.931a.734.734 0 01-.312.075zM93.061 11.724a.745.745 0 01-.312-.07L86.52 8.723a.732.732 0 01.624-1.325l6.229 2.931a.732.732 0 01-.312 1.4zM93.061 21.982a.745.745 0 01-.312-.07l-6.229-2.931a.732.732 0 01.624-1.325l6.229 2.931a.732.732 0 01-.312 1.4zM93.061 32.241a.745.745 0 01-.312-.07L86.52 29.24a.732.732 0 01.624-1.325l6.229 2.931a.732.732 0 01-.312 1.4zM93.061 42.501a.745.745 0 01-.312-.07L86.52 39.5a.732.732 0 01.624-1.325l6.229 2.931a.732.732 0 01-.312 1.4zM49.828 31.509h-5.862a2.2 2.2 0 01-2.2-2.2v-8.793a2.2 2.2 0 012.2-2.2h5.862a2.2 2.2 0 012.2 2.2v8.793a2.2 2.2 0 01-2.2 2.2zm-5.862-11.724a.734.734 0 00-.733.733v8.793a.735.735 0 00.733.733h5.862a.734.734 0 00.733-.733v-8.793a.733.733 0 00-.733-.733z" fill="#263238"/><path fill="#59d8fd" d="M25.648 21.983h13.923v5.862H25.648zM54.226 21.983h13.923v5.862H54.226z"/><path d="M39.569 28.578H25.647a.733.733 0 110-1.466H39.57a.733.733 0 010 1.466zM39.569 22.716H25.647a.733.733 0 110-1.465H39.57a.733.733 0 010 1.465zM68.147 22.716H54.225a.733.733 0 110-1.465h13.923a.733.733 0 110 1.465zM68.147 28.578H54.225a.733.733 0 110-1.466h13.923a.733.733 0 110 1.466zM46.897 26.013a.733.733 0 01-.733-.733v-6.229a.733.733 0 011.466 0v6.229a.732.732 0 01-.733.733zM42.134 1.466h-1.465a.733.733 0 110-1.465h1.465a.733.733 0 110 1.465zM62.651 1.466H45.065a.733.733 0 110-1.465h17.586a.733.733 0 010 1.465zM53.125 5.863h-1.466a.733.733 0 110-1.465h1.466a.733.733 0 110 1.465zM48.729 5.863H31.143a.733.733 0 110-1.465h17.586a.733.733 0 110 1.465zM85.734 49.828h-7.328a8.071 8.071 0 01-8.06-8.06V8.061a8.071 8.071 0 018.06-8.06h7.328a8.07 8.07 0 018.061 8.06v33.707a8.07 8.07 0 01-8.061 8.06zM78.406 1.465a6.6 6.6 0 00-6.595 6.595v33.707a6.6 6.6 0 006.595 6.595h7.328a6.6 6.6 0 006.595-6.595V8.06a6.6 6.6 0 00-6.595-6.595zM53.125 45.432h-1.466a.733.733 0 110-1.466h1.466a.733.733 0 110 1.466zM48.729 45.432H31.143a.733.733 0 110-1.466h17.586a.733.733 0 110 1.466zM42.134 49.829h-1.465a.733.733 0 110-1.466h1.465a.733.733 0 110 1.466zM62.651 49.829H45.065a.733.733 0 110-1.466h17.586a.733.733 0 010 1.466z" fill="#263238"/></svg>