<svg xmlns="http://www.w3.org/2000/svg" width="73.681" height="79" viewBox="0 0 73.681 79"><path d="M72.901 27.016l-1.416-5.974-11.712 11.712-10.664-2.908-2.908-10.663L57.914 7.471 51.94 6.055a3.426 3.426 0 00-3.213.911L38.401 17.293a3.428 3.428 0 00-.883 3.326l1.338 4.906a6.854 6.854 0 01-1.766 6.65L12.816 56.449a10.968 10.968 0 109.719 9.667l24.246-24.248a6.85 6.85 0 016.65-1.766l4.906 1.338a3.429 3.429 0 003.326-.883L71.99 30.229a3.423 3.423 0 00.911-3.213zM15.52 71.226a5.484 5.484 0 110-7.755 5.484 5.484 0 010 7.755z" fill="#59d8fd"/><path d="M11.638 79c-.215 0-.432-.007-.648-.018a11.567 11.567 0 01-8.483-4.4 11.648 11.648 0 0110.05-18.849l24.047-24.046a6.183 6.183 0 001.589-5.986l-1.338-4.906a4.123 4.123 0 011.06-3.99L48.241 6.482a4.083 4.083 0 013.856-1.093l5.975 1.416a.686.686 0 01.326 1.151L46.967 19.388l2.7 9.9 9.9 2.7 11.431-11.432a.684.684 0 011.152.328l1.416 5.973a4.084 4.084 0 01-1.093 3.857L62.145 41.041a4.125 4.125 0 01-3.989 1.06l-4.906-1.338a6.164 6.164 0 00-5.985 1.59l-24.02 24.019A11.641 11.641 0 0111.637 79zm-.01-21.929a10.283 10.283 0 1010.224 9.121.687.687 0 01.2-.561l24.249-24.247a7.551 7.551 0 017.315-1.944l4.906 1.338a2.747 2.747 0 002.659-.706l10.328-10.326a2.728 2.728 0 00.729-2.572l-1.134-4.779-10.845 10.843a.693.693 0 01-.665.177l-10.662-2.908a.685.685 0 01-.481-.48l-2.908-10.664a.684.684 0 01.176-.665L56.565 7.855l-4.78-1.134a2.723 2.723 0 00-2.572.728L38.886 17.776a2.752 2.752 0 00-.707 2.661l1.339 4.906a7.557 7.557 0 01-1.942 7.316L13.301 56.933a.676.676 0 01-.558.2 10.41 10.41 0 00-1.114-.062zm.015 16.446a6.169 6.169 0 114.361-1.807 6.127 6.127 0 01-4.36 1.807zm0-10.967a4.8 4.8 0 00-3.394 8.191 4.915 4.915 0 006.786 0 4.8 4.8 0 00-3.391-8.191z" fill="#263238"/><path d="M25.197 56.783a2.048 2.048 0 01-1.454-.6l-.969-.969a2.06 2.06 0 010-2.908l12.6-12.6a2.055 2.055 0 012.908 0l.969.969a2.058 2.058 0 010 2.907l-12.6 12.6a2.048 2.048 0 01-1.454.601zm11.632-16.31a.683.683 0 00-.484.2l-12.6 12.6a.687.687 0 000 .969l.968.969a.688.688 0 00.971 0l12.6-12.6a.686.686 0 000-.969l-.969-.969a.688.688 0 00-.486-.2zM62.681 30.533a.662.662 0 01-.18-.025l-10.664-2.907a.688.688 0 01-.481-.48l-2.908-10.664a.685.685 0 01.177-.665l7.834-7.836a.691.691 0 01.665-.177l10.664 2.908a.69.69 0 01.481.481l2.908 10.662a.681.681 0 01-.177.665l-7.836 7.836a.684.684 0 01-.483.202zm-10.1-4.152l9.9 2.7 7.272-7.272-2.7-9.9-9.9-2.7-7.272 7.274z" fill="#263238"/><path d="M56.176 23.465a.686.686 0 01-.485-1.171l7.271-7.271a.685.685 0 01.969.969l-7.271 7.271a.679.679 0 01-.484.202z" fill="#263238"/><path d="M63.447 23.465a.685.685 0 01-.485-.2l-7.271-7.271a.685.685 0 11.969-.969l7.271 7.271a.686.686 0 01-.484 1.171zM27.375 38.69a.679.679 0 01-.484-.2L12.374 23.974a.674.674 0 00-.318-.181l-3.02-.754a2.079 2.079 0 01-1.175-.8l-6.3-8.823a2.046 2.046 0 01.218-2.648l3.689-3.69a2.052 2.052 0 012.65-.219l8.821 6.3a2.066 2.066 0 01.8 1.175l.754 3.021a.682.682 0 00.181.317l14.472 14.472a.685.685 0 01-.969.969L17.705 18.641a2.067 2.067 0 01-.541-.954l-.754-3.02a.7.7 0 00-.269-.393l-8.82-6.3a.685.685 0 00-.884.071l-3.689 3.69a.681.681 0 00-.073.881l6.3 8.823a.7.7 0 00.393.269l3.017.753a2.06 2.06 0 01.957.544L27.858 37.52a.686.686 0 01-.485 1.171z" fill="#263238"/><path d="M48.942 43.577L38.28 54.241a1.372 1.372 0 000 1.938l.969.969a1.369 1.369 0 001.938 0l.485-.485 19.872 19.872a3.427 3.427 0 004.846 0l4.847-4.846a3.429 3.429 0 000-4.847L51.362 46.969l.485-.484a1.372 1.372 0 000-1.938l-.971-.97a1.372 1.372 0 00-1.934 0z" fill="#edfafe"/><path d="M63.966 78.222a4.1 4.1 0 01-2.908-1.2l-19.382-19.39a2.1 2.1 0 01-2.908 0l-.969-.969a2.054 2.054 0 010-2.908l10.662-10.662a2.105 2.105 0 012.908 0l.969.969a2.057 2.057 0 010 2.907l19.386 19.388a4.11 4.11 0 010 5.815l-4.846 4.847a4.1 4.1 0 01-2.912 1.203zm-22.29-22.245a.681.681 0 01.484.2l19.872 19.872a2.748 2.748 0 003.878 0l4.846-4.847a2.74 2.74 0 000-3.877l-19.87-19.872a.685.685 0 010-.971l.484-.484a.686.686 0 000-.969l-.969-.969a.7.7 0 00-.968 0L38.771 54.722a.686.686 0 000 .969l.969.969a.7.7 0 00.968 0l.485-.484a.686.686 0 01.483-.199zm7.27-12.4z" fill="#263238"/><path d="M63.966 72.006a2.723 2.723 0 01-1.938-.8l-14.541-14.54a2.746 2.746 0 010-3.877 2.807 2.807 0 013.878 0l14.541 14.54a2.742 2.742 0 01-1.94 4.68zM49.427 53.354a1.37 1.37 0 00-.971 2.339l14.541 14.54a1.4 1.4 0 001.938 0 1.372 1.372 0 000-1.938L50.396 53.754a1.366 1.366 0 00-.97-.4zM46.282 2.34a.685.685 0 01-.484-1.169l.969-.969a.685.685 0 11.969.969l-.969.969a.682.682 0 01-.485.2zM32.713 15.911a.686.686 0 01-.485-1.171L43.86 3.108a.685.685 0 01.969.969L33.197 15.709a.678.678 0 01-.484.202z" fill="#263238"/><g><path d="M23.502 77.464a.685.685 0 01-.485-1.169l.969-.969a.685.685 0 01.969.969l-.969.969a.683.683 0 01-.484.2z" fill="#263238"/></g><g><path d="M26.41 74.555a.685.685 0 01-.484-1.169l11.632-11.633a.685.685 0 01.969.969L26.895 74.355a.689.689 0 01-.485.2z" fill="#263238"/></g></svg>