<svg xmlns="http://www.w3.org/2000/svg" width="79.541" height="75.479" viewBox="0 0 79.541 75.479"><path d="M20.211 16.233h-1.3a.652.652 0 010-1.3h1.3a.652.652 0 010 1.3zM16.299 16.233H.652a.652.652 0 010-1.3h15.647a.652.652 0 010 1.3zM9.128 12.321h-1.3a.652.652 0 010-1.3h1.3a.652.652 0 010 1.3zM27.383 12.321H11.736a.652.652 0 010-1.3h15.647a.652.652 0 010 1.3zM76.281 59.908a.651.651 0 01-.652-.652V54.04a.652.652 0 011.3 0v5.216a.651.651 0 01-.648.652z" fill="#263238"/><path d="M78.889 57.3h-5.216a.652.652 0 010-1.3h5.216a.652.652 0 010 1.3zM67.154 69.036a.651.651 0 01-.652-.652v-5.216a.652.652 0 011.3 0v5.216a.651.651 0 01-.648.652z" fill="#263238"/><path d="M69.762 66.427h-5.216a.652.652 0 010-1.3h5.216a.652.652 0 010 1.3z" fill="#263238"/><path d="M22.342 74.192a3.2 3.2 0 01-2.275-.943l-1.055-1.055a5.3 5.3 0 00-3.766-1.561 3.991 3.991 0 01-2.844-1.177l-5-5a4 4 0 01-1.177-2.844 5.291 5.291 0 00-1.56-3.766l-1.056-1.054a3.224 3.224 0 010-4.552l21.8-21.8-.312-.447a4.512 4.512 0 013.711-7.086 4.487 4.487 0 012.568.806l.447.312 21.8-21.8a3.217 3.217 0 014.551 0L59.23 3.28a5.287 5.287 0 003.765 1.56 4.041 4.041 0 012.844 1.179l5 5a4 4 0 011.177 2.844 5.287 5.287 0 001.561 3.765l1.055 1.055a3.224 3.224 0 010 4.552l-21.8 21.8.313.447a4.513 4.513 0 01-3.711 7.086 4.491 4.491 0 01-2.569-.806l-.447-.312-21.8 21.8a3.2 3.2 0 01-2.276.942zm0-6.139a1.942 1.942 0 101.943 1.943 1.945 1.945 0 00-1.943-1.943zm-6.451-2.579a1.942 1.942 0 101.942 1.942 1.944 1.944 0 00-1.939-1.942zm3.871-15.483a7.1 7.1 0 107.1 7.1 7.112 7.112 0 00-7.096-7.1zm-10.32 9.031a1.942 1.942 0 101.942 1.943 1.945 1.945 0 00-1.942-1.943zm24.514-2.581a1.942 1.942 0 101.942 1.943 1.945 1.945 0 00-1.94-1.943zm-27.1-3.87A1.942 1.942 0 108.8 54.513a1.944 1.944 0 00-1.938-1.942zm25.805-15.483a7.1 7.1 0 107.1 7.1 7.112 7.112 0 00-7.094-7.1zm17.42 9.677a1.942 1.942 0 101.942 1.942 1.945 1.945 0 00-1.936-1.942zM18.469 40.96a1.942 1.942 0 101.943 1.942 1.943 1.943 0 00-1.937-1.942zM45.57 24.183a7.1 7.1 0 107.1 7.1 7.111 7.111 0 00-7.1-7.1zm14.193 6.452a1.942 1.942 0 101.942 1.942 1.944 1.944 0 00-1.942-1.94zm-30.966-5.162a1.942 1.942 0 101.945 1.945 1.945 1.945 0 00-1.945-1.943zm29.675-14.19a7.1 7.1 0 107.1 7.1 7.113 7.113 0 00-7.1-7.1zm12.9 7.742a1.942 1.942 0 101.942 1.942 1.944 1.944 0 00-1.939-1.943zm-27.095-3.87a1.942 1.942 0 101.942 1.942 1.944 1.944 0 00-1.939-1.943zm24.514-2.581a1.942 1.942 0 101.951 1.941 1.944 1.944 0 00-1.948-1.941zm-6.452-6.452a1.942 1.942 0 101.943 1.943 1.945 1.945 0 00-1.94-1.943zm-6.451-2.581a1.942 1.942 0 101.942 1.943 1.945 1.945 0 00-1.938-1.943z" fill="#59d8fd"/><path d="M58.472 25.475a7.089 7.089 0 117.09-7.09 7.1 7.1 0 01-7.09 7.09zm0-12.9a5.812 5.812 0 105.813 5.812 5.819 5.819 0 00-5.813-5.812zM45.569 38.38a7.09 7.09 0 117.09-7.09 7.1 7.1 0 01-7.09 7.09zm0-12.9a5.814 5.814 0 105.813 5.814 5.82 5.82 0 00-5.813-5.814zM32.666 51.281a7.089 7.089 0 117.09-7.088 7.1 7.1 0 01-7.09 7.088zm0-12.9a5.813 5.813 0 105.813 5.813 5.82 5.82 0 00-5.813-5.813zM19.765 64.183a7.089 7.089 0 117.088-7.09 7.1 7.1 0 01-7.088 7.09zm0-12.9a5.813 5.813 0 105.813 5.813 5.82 5.82 0 00-5.813-5.813z" fill="#d4e4f0"/><path d="M6.862 55.153a.638.638 0 11.64-.639.64.64 0 01-.64.639zM18.477 43.541a.638.638 0 11.639-.639.64.64 0 01-.639.639zM28.796 28.056a.638.638 0 11.638-.638.639.639 0 01-.638.638zM50.086 49.346a.638.638 0 11.638-.639.639.639 0 01-.638.639zM22.345 70.634a.638.638 0 11.639-.638.639.639 0 01-.639.638z"/><circle cx=".638" cy=".638" r=".638" transform="translate(15.256 66.778)"/><path d="M9.443 61.603a.638.638 0 11.638-.638.638.638 0 01-.638.638zM55.891 6.123a.638.638 0 11.638-.638.638.638 0 01-.638.638z"/><circle cx=".638" cy=".638" r=".638" transform="translate(43.641 16.458)"/><path d="M71.375 21.606a.638.638 0 11.638-.639.638.638 0 01-.638.639zM59.763 33.219a.638.638 0 11.638-.639.64.64 0 01-.638.639zM33.957 59.023a.638.638 0 11.638-.638.639.639 0 01-.638.638zM68.794 15.155a.638.638 0 11.639-.639.64.64 0 01-.639.639zM62.342 8.703a.638.638 0 11.639-.638.639.639 0 01-.639.638z"/><path d="M22.341 75.483a4.481 4.481 0 01-3.187-1.317l-1.055-1.055a4.012 4.012 0 00-2.854-1.183 5.276 5.276 0 01-3.757-1.557l-5-5a5.278 5.278 0 01-1.556-3.757 4.009 4.009 0 00-1.181-2.853l-1.056-1.055a4.514 4.514 0 010-6.376l21.037-21.037-.194-.415a5.794 5.794 0 015.26-8.249 5.854 5.854 0 012.453.54l.415.192L52.703 1.323a4.514 4.514 0 016.376 0l1.055 1.055a4.009 4.009 0 002.853 1.183 5.275 5.275 0 013.757 1.556l5 5a5.273 5.273 0 011.557 3.755 4 4 0 001.183 2.853l1.057 1.058a4.513 4.513 0 010 6.375L54.503 45.196l.193.415a5.805 5.805 0 01-7.71 7.709l-.413-.192-21.038 21.038a4.487 4.487 0 01-3.194 1.317zm6.455-52.581a4.523 4.523 0 00-3.716 7.1.637.637 0 01-.074.815L3.596 52.228a3.235 3.235 0 000 4.57l1.055 1.055a5.266 5.266 0 011.556 3.755 4.005 4.005 0 001.184 2.853l5 5a4 4 0 002.85 1.183 5.285 5.285 0 013.758 1.556l1.055 1.056a3.208 3.208 0 002.285.944 3.2 3.2 0 002.286-.945l21.41-21.41a.641.641 0 01.816-.073 4.525 4.525 0 006.3-6.3.639.639 0 01.073-.816l21.41-21.41a3.231 3.231 0 000-4.57l-1.055-1.055a5.27 5.27 0 01-1.556-3.755 4 4 0 00-1.183-2.853l-5-5a4 4 0 00-2.852-1.183 5.273 5.273 0 01-3.757-1.557l-1.055-1.054a3.233 3.233 0 00-4.572 0l-21.41 21.408a.639.639 0 01-.816.074 4.5 4.5 0 00-2.579-.802z" fill="#263238"/><path d="M58.472 25.475a7.089 7.089 0 117.09-7.09 7.1 7.1 0 01-7.09 7.09zm0-12.9a5.812 5.812 0 105.813 5.812 5.819 5.819 0 00-5.813-5.813zM45.569 38.38a7.09 7.09 0 117.09-7.09 7.1 7.1 0 01-7.09 7.09zm0-12.9a5.814 5.814 0 105.813 5.814 5.82 5.82 0 00-5.813-5.818zM32.666 51.281a7.089 7.089 0 117.09-7.088 7.1 7.1 0 01-7.09 7.088zm0-12.9a5.813 5.813 0 105.813 5.813 5.82 5.82 0 00-5.813-5.814zM19.765 64.183a7.089 7.089 0 117.088-7.09 7.1 7.1 0 01-7.088 7.09zm0-12.9a5.813 5.813 0 105.813 5.813 5.82 5.82 0 00-5.813-5.816z"/></svg>