<svg xmlns="http://www.w3.org/2000/svg" width="60.563" height="76" viewBox="0 0 60.563 76"><path d="M44.532 39.534a4.156 4.156 0 00-4.156 4.156v5.938h-5.937v.247a4.156 4.156 0 01-8.312 0v-.247H20.19v-5.937a4.156 4.156 0 00-8.312 0v20.191a4.157 4.157 0 008.313 0v-5.937h5.938v5.938a4.157 4.157 0 008.313 0v-5.937h5.938v5.938a4.157 4.157 0 008.313 0V43.697a4.157 4.157 0 00-4.161-4.163z" fill="#59d8fd"/><path d="M44.531 68.629a4.756 4.756 0 01-4.75-4.75v-5.344h-4.75v5.344a4.75 4.75 0 01-9.5 0v-5.344h-4.75v5.344a4.75 4.75 0 01-9.5 0v-20.19a4.75 4.75 0 019.5 0v5.344h2.969a.594.594 0 010 1.188h-3.562a.594.594 0 01-.594-.594v-5.938a3.563 3.563 0 00-7.125 0v20.188a3.563 3.563 0 007.125 0V57.94a.593.593 0 01.594-.594h5.934a.592.592 0 01.594.594v5.938a3.563 3.563 0 007.125 0v-5.937a.593.593 0 01.594-.594h5.938a.592.592 0 01.594.594v5.938a3.563 3.563 0 007.125 0v-20.19a3.563 3.563 0 00-7.125 0v5.938a.593.593 0 01-.594.594h-3.561a.594.594 0 010-1.187h2.969v-5.345a4.75 4.75 0 019.5 0v20.188a4.756 4.756 0 01-4.75 4.752z" fill="#263238"/><path d="M30.282 54.626a4.755 4.755 0 01-4.75-4.75V27.907a.594.594 0 011.188 0v21.969a3.562 3.562 0 107.124 0V27.907a.594.594 0 011.188 0v21.969a4.755 4.755 0 01-4.75 4.75z" fill="#263238"/><path d="M52.25 76.003H8.312a6.54 6.54 0 01-6.531-6.531V38.597a6.539 6.539 0 016.531-6.531H23.75a.594.594 0 010 1.188H8.312a5.35 5.35 0 00-5.344 5.344v30.875a5.35 5.35 0 005.344 5.344H52.25a5.35 5.35 0 005.344-5.344V38.598a5.349 5.349 0 00-5.344-5.344H36.812a.594.594 0 010-1.187H52.25a6.538 6.538 0 016.531 6.531v30.875a6.539 6.539 0 01-6.531 6.53z" fill="#263238"/><path d="M36.22 20.781v1.781a2.969 2.969 0 01-2.969 2.969h-5.937a2.968 2.968 0 01-2.969-2.969v-1.781L21.97 19a5.937 5.937 0 01-2.375-4.75V9.5A8.906 8.906 0 0128.501.594h3.563A8.906 8.906 0 0140.97 9.5v4.75A5.937 5.937 0 0138.595 19z" fill="#edfafe"/><path d="M33.25 26.125h-5.937a3.567 3.567 0 01-3.562-3.562v-1.484l-2.136-1.6a6.565 6.565 0 01-2.614-5.225v-4.75a9.511 9.511 0 019.5-9.5h3.563a9.51 9.51 0 019.5 9.5v4.75a6.56 6.56 0 01-2.613 5.225l-2.137 1.6v1.484a3.566 3.566 0 01-3.564 3.562zM28.5 1.187A8.322 8.322 0 0020.188 9.5v4.75a5.37 5.37 0 002.139 4.275l2.374 1.781a.593.593 0 01.238.475v1.781a2.377 2.377 0 002.375 2.375h5.938a2.377 2.377 0 002.375-2.375v-1.781a.594.594 0 01.239-.475l2.375-1.781a5.368 5.368 0 002.136-4.275V9.5a8.322 8.322 0 00-8.312-8.312z" fill="#263238"/><path d="M37.41 10.094a.594.594 0 01-.594-.594 4.755 4.755 0 00-4.75-4.75.594.594 0 010-1.187 5.944 5.944 0 015.938 5.938.593.593 0 01-.594.593zM1.781 26.718H.594a.594.594 0 010-1.187h1.188a.594.594 0 010 1.188zM18.404 26.718H4.154a.594.594 0 010-1.187h14.25a.594.594 0 010 1.188zM59.969 26.718h-1.187a.594.594 0 010-1.187h1.188a.594.594 0 010 1.188zM56.404 26.718h-14.25a.594.594 0 010-1.187h14.25a.594.594 0 010 1.188zM4.75 61.753H2.375a.594.594 0 01-.594-.594v-14.25a.593.593 0 01.594-.594H4.75a1.783 1.783 0 011.781 1.781v11.875a1.783 1.783 0 01-1.781 1.782zm-1.781-1.187H4.75a.594.594 0 00.594-.594V48.097a.594.594 0 00-.594-.594H2.969z" fill="#263238"/><g><path d="M58.187 61.753h-2.375a1.783 1.783 0 01-1.781-1.781V48.097a1.783 1.783 0 011.781-1.781h2.375a.592.592 0 01.594.594v14.25a.593.593 0 01-.594.593zm-2.375-14.25a.594.594 0 00-.594.594v11.875a.594.594 0 00.594.594h1.781V47.503z" fill="#263238"/></g></svg>