<svg xmlns="http://www.w3.org/2000/svg" width="75" height="76.844" viewBox="0 0 75 76.844"><path d="M67.311 71.981H7.687a7.159 7.159 0 01-6.869-5.209l-.545-1.945a7.133 7.133 0 016.869-9.058h60.713a7.133 7.133 0 016.869 9.058l-.545 1.945a7.158 7.158 0 01-6.868 5.209zM7.142 57.066a5.836 5.836 0 00-5.62 7.411l.545 1.945a5.857 5.857 0 005.62 4.262h59.624a5.856 5.856 0 005.62-4.262l.546-1.945a5.837 5.837 0 00-5.621-7.411z" fill="#263238"/><path d="M28.958 51.229H7.134a6.483 6.483 0 01-6.444-7.2l2.449-22.048a6.486 6.486 0 016.446-5.769h16.918a6.486 6.486 0 016.446 5.769l2.45 22.048a6.485 6.485 0 01-6.441 7.2z" fill="#59d8fd"/><path d="M28.954 51.877H7.133a7.135 7.135 0 01-7.09-7.922l2.45-22.048a7.126 7.126 0 017.09-6.345h16.925a7.125 7.125 0 017.089 6.345l2.45 22.048a7.133 7.133 0 01-7.09 7.922zM9.58 16.86a5.829 5.829 0 00-5.8 5.192L1.331 44.1a5.836 5.836 0 005.8 6.481h21.823a5.836 5.836 0 005.8-6.481l-2.451-22.048a5.826 5.826 0 00-5.8-5.192z" fill="#263238"/><path d="M28.957 47.987a.65.65 0 010-1.3 1.944 1.944 0 001.934-2.161l-2.45-22.048a1.942 1.942 0 00-1.932-1.73.65.65 0 110-1.3 3.238 3.238 0 013.222 2.884l2.45 22.048a3.241 3.241 0 01-3.223 3.6z" fill="#263238"/><path d="M67.866 51.229H46.042a6.483 6.483 0 01-6.444-7.2l2.449-22.048a6.486 6.486 0 016.446-5.769h16.918a6.486 6.486 0 016.446 5.769l2.45 22.048a6.485 6.485 0 01-6.441 7.2z" fill="#59d8fd"/><path d="M67.862 51.877H46.041a7.135 7.135 0 01-7.09-7.922l2.45-22.048a7.126 7.126 0 017.09-6.345h16.925a7.125 7.125 0 017.089 6.345l2.45 22.048a7.133 7.133 0 01-7.09 7.922zM48.488 16.86a5.829 5.829 0 00-5.8 5.192L40.239 44.1a5.836 5.836 0 005.8 6.481h21.823a5.836 5.836 0 005.8-6.481l-2.451-22.048a5.826 5.826 0 00-5.8-5.192z" fill="#263238"/><path d="M67.865 47.987a.65.65 0 110-1.3 1.944 1.944 0 001.934-2.161l-2.45-22.048a1.941 1.941 0 00-1.932-1.73.65.65 0 010-1.3 3.238 3.238 0 013.222 2.884l2.45 22.048a3.241 3.241 0 01-3.223 3.6z" fill="#263238"/><g transform="translate(8.966)"><rect width="16.86" height="12.969" rx="2.5" transform="translate(.649 .648)" fill="#edfafe"/><path d="M14.266 14.265H3.891A3.9 3.9 0 010 10.374V3.889A3.9 3.9 0 013.891-.002h10.376a3.894 3.894 0 013.891 3.891v6.485a3.9 3.9 0 01-3.892 3.891zM3.891 1.297a2.6 2.6 0 00-2.594 2.594v6.485a2.6 2.6 0 002.594 2.594h10.376a2.6 2.6 0 002.594-2.594V3.891a2.6 2.6 0 00-2.594-2.594z" fill="#263238"/></g><path d="M30.365 54.472a.649.649 0 01-.648-.648v-1.945H6.372v1.945a.65.65 0 01-1.3 0V51.23a.648.648 0 01.648-.649h24.642a.647.647 0 01.648.649v2.594a.648.648 0 01-.645.648z" fill="#263238"/><path d="M12.115 29.181h11.86a2.5 2.5 0 012.5 2.5v19.548H9.615V31.681a2.5 2.5 0 012.5-2.5z" fill="#fff"/><path d="M26.475 51.878H9.615a.649.649 0 01-.648-.648V32.424a3.9 3.9 0 013.891-3.891h10.376a3.894 3.894 0 013.891 3.891V51.23a.648.648 0 01-.65.648zm-16.212-1.3h15.563V32.424a2.6 2.6 0 00-2.594-2.594H12.857a2.6 2.6 0 00-2.594 2.594z" fill="#263238"/><path d="M23.881 36.963H12.208a.65.65 0 010-1.3h11.673a.65.65 0 110 1.3zM23.881 44.745H12.208a.65.65 0 010-1.3h11.673a.65.65 0 110 1.3z" fill="#263238"/><g transform="translate(47.874)"><rect width="16.86" height="12.969" rx="2.5" transform="translate(.649 .648)" fill="#edfafe"/><path d="M14.266 14.265H3.891A3.9 3.9 0 010 10.374V3.889A3.9 3.9 0 013.891-.002h10.376a3.894 3.894 0 013.891 3.891v6.485a3.9 3.9 0 01-3.892 3.891zM3.891 1.297a2.6 2.6 0 00-2.594 2.594v6.485a2.6 2.6 0 002.594 2.594h10.376a2.6 2.6 0 002.594-2.594V3.891a2.6 2.6 0 00-2.594-2.594z" fill="#263238"/></g><path d="M69.273 54.472a.649.649 0 01-.648-.648v-1.945H45.28v1.945a.65.65 0 01-1.3 0V51.23a.648.648 0 01.648-.649H69.27a.647.647 0 01.648.649v2.594a.648.648 0 01-.645.648z" fill="#263238"/><path d="M51.023 29.181h11.86a2.5 2.5 0 012.5 2.5v19.548h-16.86V31.681a2.5 2.5 0 012.5-2.5z" fill="#fff"/><path d="M65.383 51.878h-16.86a.649.649 0 01-.648-.648V32.424a3.9 3.9 0 013.891-3.891h10.376a3.894 3.894 0 013.891 3.891V51.23a.648.648 0 01-.65.648zm-16.212-1.3h15.563V32.424a2.6 2.6 0 00-2.594-2.594H51.765a2.6 2.6 0 00-2.594 2.594z" fill="#263238"/><path d="M62.789 36.963H51.117a.65.65 0 110-1.3h11.672a.65.65 0 010 1.3z" fill="#263238"/><g><path d="M62.789 44.745H51.117a.65.65 0 110-1.3h11.672a.65.65 0 010 1.3z" fill="#263238"/></g><g><path d="M37.499 69.386a.649.649 0 01-.648-.648v-9.727a.65.65 0 011.3 0v9.727a.648.648 0 01-.652.648z" fill="#263238"/></g><g><path d="M24.528 76.844h-2.594a.65.65 0 010-1.3h2.594a.65.65 0 010 1.3z" fill="#263238"/></g><g><path d="M53.062 76.844H27.124a.65.65 0 110-1.3h25.939a.65.65 0 110 1.3z" fill="#263238"/></g></svg>