<svg xmlns="http://www.w3.org/2000/svg" width="85.813" height="74.594" viewBox="0 0 85.813 74.594"><path d="M69.777 70.843a.7.7 0 01-.5-1.2l1-1a.707.707 0 011 1l-1 1a.7.7 0 01-.5.2zM42.906 74.594a37.3 37.3 0 1137.3-37.3 37.34 37.34 0 01-37.3 37.3zm0-73.187a35.89 35.89 0 1035.89 35.89 35.931 35.931 0 00-35.89-35.89zm0 67.557a31.667 31.667 0 1131.667-31.667 31.7 31.7 0 01-31.667 31.668zm0-61.927a30.26 30.26 0 1030.26 30.26A30.294 30.294 0 0042.906 7.04z" fill="#263238"/><path d="M13.05 67.857a.7.7 0 01-.5-.207 42.975 42.975 0 010-60.707.707.707 0 111 1 41.566 41.566 0 000 58.717.7.7 0 01-.5 1.2zM15.041 6.154a.7.7 0 01-.5-1.2l1-1a.705.705 0 011 .995l-1 1a.705.705 0 01-.5.205zM72.764 67.857a.7.7 0 01-.5-1.2 41.569 41.569 0 000-58.717.707.707 0 111-1 42.98 42.98 0 010 60.707.7.7 0 01-.5.21z" fill="#263238"/><g transform="translate(39.387 17.593)"><rect width="5.63" height="25.334" rx="2" transform="translate(.705 .703)" fill="#59d8fd"/><path d="M3.519 26.74A3.522 3.522 0 010 23.221v-19.7a3.519 3.519 0 017.037 0v19.7a3.522 3.522 0 01-3.518 3.519zm0-25.334a2.114 2.114 0 00-2.111 2.111v19.7a2.111 2.111 0 104.222 0v-19.7a2.113 2.113 0 00-2.111-2.11z" fill="#263238"/></g><g transform="translate(37.98 47.149)"><circle cx="4.222" cy="4.222" r="4.222" transform="translate(.705 .703)" fill="#edfafe"/><path d="M4.926 9.852a4.926 4.926 0 114.926-4.926 4.933 4.933 0 01-4.926 4.926zm0-8.445a3.519 3.519 0 103.519 3.519 3.522 3.522 0 00-3.519-3.519z" fill="#263238"/></g></svg>