<svg xmlns="http://www.w3.org/2000/svg" width="82.076" height="72.952" viewBox="0 0 82.076 72.952"><path d="M11.694 22.908v43.758l3.037 4.936a1.375 1.375 0 001.172.655h10.846a1.375 1.375 0 001.172-.655l3.036-4.936V22.908z" fill="#edfafe"/><path d="M40.589 20.844H2.063a1.376 1.376 0 01-1.376-1.376v2.064a1.375 1.375 0 001.376 1.376h38.525a1.374 1.374 0 001.375-1.376v-2.064a1.375 1.375 0 01-1.374 1.376z" fill="#fff"/><path d="M57.319 22.907v35.589l6.192 13.76 6.192-13.76V22.907z" fill="#edfafe"/><path d="M69.737 11.248H66.42v5.142h-5.818v-5.142h-3.32a11.66 11.66 0 00-11.662 11.66h35.773a11.659 11.659 0 00-11.66-11.66z" fill="#59d8fd"/><path d="M18.193 8.494h5.962a.688.688 0 000-1.376h-5.962a.688.688 0 100 1.376z" fill="#3a2c60"/><path d="M40.589 7.12h-13.8a.688.688 0 000 1.376h5.542V22.22H10.319V8.494h5.121a.688.688 0 000-1.376H2.064A2.066 2.066 0 00.001 9.182v12.349a2.066 2.066 0 002.063 2.064h8.943v4.862l-.621.044a.688.688 0 00.048 1.374h.049l.524-.036v2.055l-.621.044a.688.688 0 00.048 1.375h.049l.524-.038v2.061l-.621.044a.688.688 0 00.048 1.375h.049l.524-.036v2.06l-.621.044a.688.688 0 00.048 1.375h.049l.524-.038v2.061l-.621.044a.688.688 0 00.048 1.375h.049l.524-.038v2.06l-.621.044a.688.688 0 00.048 1.375h.049l.524-.038v2.061l-.621.044a.688.688 0 00.048 1.375h.049l.524-.038v2.061l-.621.044a.688.688 0 00.048 1.374h.049l.524-.036v2.06l-.621.044a.688.688 0 00.048 1.375h.049l.524-.038v2.061l-.621.044a.688.688 0 00.048 1.373h.049l.524-.036v2.06l-.621.044a.688.688 0 00.048 1.375h.049l.524-.038v2.431a.7.7 0 00.1.361l3.037 4.935a2.076 2.076 0 001.758.983h10.845a2.052 2.052 0 001.758-.983l3.037-4.936a.692.692 0 00.1-.36v-3.888l.623-.052a.686.686 0 00.637-.734.7.7 0 00-.734-.638l-.526.038v-2.061l.623-.044a.688.688 0 00-.1-1.372l-.526.038v-2.076l.623-.044a.688.688 0 00-.1-1.372l-.526.038v-2.061l.623-.044a.686.686 0 00.637-.734.694.694 0 00-.734-.638l-.526.038v-2.061l.623-.044a.686.686 0 00.637-.734.7.7 0 00-.734-.638l-.526.038v-2.061l.623-.044a.686.686 0 00.637-.734.7.7 0 00-.734-.638l-.526.038v-2.061l.623-.044a.688.688 0 00-.1-1.372l-.526.038v-2.061l.623-.044a.688.688 0 00-.1-1.372l-.526.038V35.26l.623-.044a.688.688 0 00.637-.734.7.7 0 00-.734-.638l-.526.038v-2.061l.623-.044a.688.688 0 00.637-.734.7.7 0 00-.734-.638l-.526.038v-2.061l.623-.044a.688.688 0 00-.1-1.372l-.526.038v-3.41h8.943a2.067 2.067 0 002.065-2.064V9.184A2.067 2.067 0 0040.57 7.12zM1.375 21.531V9.184a.689.689 0 01.689-.689h6.88V22.22h-6.88a.689.689 0 01-.689-.689zM27.334 71.24a.679.679 0 01-.585.327H15.9a.692.692 0 01-.587-.327l-2.392-3.888h16.8zm2.935-5.262H12.383v-1.841l17.886-1.262zm0-4.482l-17.886 1.261v-2.063l17.886-1.262zm0-3.44l-17.886 1.261v-2.06l17.886-1.262zm0-3.44l-17.886 1.261v-2.06l17.886-1.262zm0-3.44l-17.886 1.261v-2.06l17.886-1.262zm0-3.44l-17.886 1.258v-2.06l17.886-1.262zm0-3.44l-17.886 1.261v-2.063l17.886-1.262zm0-3.44l-17.886 1.261v-2.06l17.886-1.262zm0-3.44l-17.886 1.261v-2.06l17.886-1.262zm0-3.44l-17.886 1.261v-2.06l17.886-1.262zm0-3.44l-17.886 1.261v-2.06l17.886-1.262zm0-3.44l-17.886 1.261v-4.763h17.886zm11.008-5.568a.689.689 0 01-.687.689h-6.881V8.494h6.881a.689.689 0 01.687.689zM69.736 10.56h-3.317a.687.687 0 00-.687.689v4.453h-4.443v-4.453a.688.688 0 00-.687-.689h-3.317a12.362 12.362 0 00-12.348 12.349.687.687 0 00.687.687H56.63v6.156l-.7.137a.688.688 0 00.131 1.363.66.66 0 00.132-.013l.441-.087v2.038l-.7.137a.688.688 0 00.131 1.363.664.664 0 00.132-.013l.441-.085v2.038l-.7.137a.688.688 0 00.131 1.363.776.776 0 00.132-.013l.441-.087v2.038l-.7.137a.688.688 0 00.131 1.363.655.655 0 00.132-.013l.441-.085v2.038l-.7.137a.688.688 0 00.131 1.363.764.764 0 00.132-.013l.441-.087v2.038l-.7.137a.688.688 0 00.131 1.363.66.66 0 00.132-.013l.441-.085v2.038l-.7.137a.688.688 0 00.131 1.363.77.77 0 00.132-.013l.441-.087v2.038l-.7.137a.688.688 0 00.131 1.363.66.66 0 00.132-.013l.441-.085v2.038l-.7.137a.688.688 0 00.131 1.363.77.77 0 00.132-.013l.476-.095a.692.692 0 00.026.117l.792 1.762-.414.082a.687.687 0 00.131 1.362.654.654 0 00.132-.013l.731-.142.843 1.873-.3.058a.688.688 0 00.131 1.363.77.77 0 00.132-.013l.616-.12.843 1.873-.357.07a.688.688 0 00.131 1.363.669.669 0 00.132-.014l.674-.132 1.973 4.386a.688.688 0 001.255 0l2.474-5.5 1.113-.216a.689.689 0 00-.264-1.352l-.157.031 1.006-2.234.864-.168a.687.687 0 00.544-.807.68.68 0 00-.724-.542l1.012-2.253.971-.19a.688.688 0 00-.263-1.35l-.325.063v-2.036l.7-.137a.688.688 0 10-.264-1.35l-.442.085v-2.038l.7-.137a.688.688 0 10-.263-1.35l-.442.085v-2.038l.7-.137a.688.688 0 10-.264-1.35l-.441.085v-2.038l.7-.137a.688.688 0 10-.263-1.35l-.441.085v-2.038l.7-.137a.688.688 0 10-.264-1.35l-.441.085v-2.038l.7-.137a.688.688 0 10-.263-1.35l-.441.085v-2.038l.7-.137a.688.688 0 10-.264-1.35l-.441.085v-2.038l.7-.137a.688.688 0 10-.263-1.35l-.441.085v-2.038l.7-.137a.688.688 0 10-.264-1.35l-.441.085v-3.466h11.008a.688.688 0 00.687-.689 12.347 12.347 0 00-12.34-12.34zM63.51 70.577l-1.213-2.7 2.662-.52zm2.14-4.755l-3.933.769-.843-1.873 5.78-1.13zm1.7-3.771l-7.053 1.379-.843-1.873 8.9-1.74zm1.666-3.766l-10.143 1.982-.843-1.873 10.986-2.146zm0-3.44L58.01 56.997v-2.038l11.006-2.152zm0-3.44L58.01 53.557v-2.038l11.006-2.152zm0-3.44L58.01 50.117v-2.038l11.006-2.152zm0-3.44l-11.009 2.152v-2.039l11.006-2.15zm0-3.44l-11.006 2.15v-2.038l11.006-2.15zm0-3.44l-11.006 2.15v-2.038l11.006-2.15zm0-3.44l-11.006 2.15v-2.038l11.006-2.15zm0-3.44l-11.006 2.15v-2.038l11.006-2.15zm0-3.44l-11.006 2.15V23.59h11.006zm.689-5.111H46.334a10.987 10.987 0 0110.951-10.285h2.628v4.455a.688.688 0 00.689.689h5.818a.688.688 0 00.689-.689v-4.455h2.628a10.989 10.989 0 0110.952 10.285z" fill="#3a2c60"/><g><path d="M74.84 3.884h-5.178a.647.647 0 010-1.295h5.178a.647.647 0 110 1.295z" fill="#263238"/></g><g><path d="M72.25 6.474a.648.648 0 01-.647-.647V.649a.647.647 0 011.295 0v5.178a.647.647 0 01-.648.647z" fill="#263238"/></g><g><path d="M75.121 56.961a.647.647 0 01-.647-.647V55.04a.647.647 0 111.295 0v1.274a.648.648 0 01-.648.647z" fill="#263238"/></g><g><path d="M75.121 72.789a.646.646 0 01-.647-.647V58.863a.647.647 0 011.295 0v13.278a.647.647 0 01-.648.648z" fill="#263238"/></g><g><path d="M6.453 43.329a.648.648 0 01-.647-.647v-1.295a.647.647 0 111.294 0v1.295a.647.647 0 01-.647.647zM6.453 39.445a.648.648 0 01-.647-.647V25.852a.647.647 0 111.294 0v12.946a.647.647 0 01-.647.647z" fill="#263238"/></g></svg>