<svg xmlns="http://www.w3.org/2000/svg" width="61.295" height="73.452" viewBox="0 0 61.295 73.452"><path d="M49.847 20.145a4.333 4.333 0 01-2.761-.978 4.4 4.4 0 112.761.978zm-2.148-1.211l.871.318a3.793 3.793 0 001.3.229 3.715 3.715 0 003.144-5.708l-.492-.789zm2.158-6.919a3.727 3.727 0 00-3.16 5.719l.493.786 4.824-5.952-.871-.319a3.763 3.763 0 00-1.287-.235zM11.448 20.145a4.392 4.392 0 01-2.773-7.806 4.339 4.339 0 012.762-.978 4.391 4.391 0 012.771 7.806 4.335 4.335 0 01-2.76.978zm-3.161-6.372a3.714 3.714 0 003.142 5.708 3.793 3.793 0 001.3-.229l.871-.318-4.818-5.949zm3.169-1.747a3.758 3.758 0 00-1.3.229l-.873.318 4.82 5.945.492-.786a3.715 3.715 0 00-3.142-5.707z" fill="#263238" stroke="#263238"/><path d="M14.462 22.396h31.422L38.22 40.885H21.647z" fill="#59d8fd"/><path d="M40.181 72.952a12.924 12.924 0 01-4.488-.786 13.239 13.239 0 01-8.721-12.407V41.986h-4.5a.324.324 0 01-.3-.2l-4.461-10.777h-1.958a15.254 15.254 0 010-30.507h29.786a15.254 15.254 0 110 30.507h-1.953l-4.46 10.776a.329.329 0 01-.3.2h-4.955v17.767a6.176 6.176 0 00.523 2.493 6.433 6.433 0 003.662 3.439 6.147 6.147 0 002.143.376 6.212 6.212 0 002.832-.675 6.348 6.348 0 003.23-3.846 6.735 6.735 0 00.237-1.26c0-.115.007-.194.013-.273.008-.127.017-.252.017-.428v-5.277l3.141-8.675a.327.327 0 01.615 0l3.121 8.563.02 5.393c0 .285-.021.7-.042 1.08l-.011.2a13.978 13.978 0 01-.5 2.653 13.212 13.212 0 01-12.691 9.44zM27.628 59.759a12.474 12.474 0 001.044 4.982 12.612 12.612 0 007.247 6.809 12.241 12.241 0 004.265.75 12.563 12.563 0 0012.06-8.971 13.151 13.151 0 00.476-2.517l.011-.19c.021-.38.042-.77.041-1.039V54.36l-2.8-7.684-2.788 7.815v5.09c0 .2-.009.333-.017.461l-.013.272a7.536 7.536 0 01-.261 1.406 7.02 7.02 0 01-3.562 4.25 6.9 6.9 0 01-3.136.742h0a6.806 6.806 0 01-2.36-.413 7.1 7.1 0 01-4.038-3.792 6.816 6.816 0 01-.578-2.757V41.986h-5.591zM22.69 41.332h15.914l7.59-18.34H15.1zM35.86 7.538a.327.327 0 01.327.327v14.473h10.5a.328.328 0 01.3.452l-3.13 7.564h1.683a14.6 14.6 0 100-29.2H15.753a14.6 14.6 0 100 29.2h1.684l-3.129-7.564a.326.326 0 01.3-.452h10.5V7.865a.328.328 0 01.329-.327zm-10.1 14.8h9.772V8.196h-9.77z" fill="#263238" stroke="#263238"/><path d="M30.647 35.323a3.674 3.674 0 113.674-3.674 3.678 3.678 0 01-3.674 3.674zm.327-.5l.944-.44a3.008 3.008 0 000-5.463l-.944-.44zm-1.6-5.9a3.007 3.007 0 000 5.463l.942.44v-6.343z" fill="#263238" stroke="#263238"/></svg>