<svg xmlns="http://www.w3.org/2000/svg" width="59.101" height="74.19" viewBox="0 0 59.101 74.19"><path fill="#59d8fd" d="M13.204 8.173h10.06v5.03h-10.06zM35.838 8.173h10.06v5.03h-10.06zM45.899 66.016H35.307a6.278 6.278 0 01-11.512 0h-10.59v-5.03h10.59a6.278 6.278 0 0111.512 0h10.591zM32.065 54.699h-5.03V19.49h5.03z"/><path d="M23.263 13.832h-10.06a.629.629 0 110-1.257h10.06a.629.629 0 110 1.257zM45.897 13.832h-10.06a.629.629 0 110-1.257h10.06a.629.629 0 110 1.257zM45.897 8.802h-10.06a.629.629 0 010-1.258h10.06a.629.629 0 110 1.258zM23.263 8.802h-10.06a.629.629 0 010-1.258h10.06a.629.629 0 010 1.258z" fill="#263238"/><g transform="translate(22.634 3.772)"><rect width="12.575" height="12.575" rx="2.5" transform="translate(.629 .628)" fill="#edfafe"/><path d="M10.06 13.832H3.773A3.777 3.777 0 01.001 10.06V3.773A3.776 3.776 0 013.773.001h6.287a3.775 3.775 0 013.772 3.772v6.287a3.776 3.776 0 01-3.772 3.772zM3.773 1.257a2.518 2.518 0 00-2.515 2.515v6.287a2.518 2.518 0 002.515 2.515h6.287a2.518 2.518 0 002.515-2.515V3.772a2.517 2.517 0 00-2.515-2.515z" fill="#263238"/></g><path d="M44.011 59.1a.629.629 0 01-.629-.629V38.444l-3.745-12.487a.581.581 0 01-.028-.18v-10.06a.629.629 0 011.258 0v9.968l3.746 12.485a.59.59 0 01.026.181V58.47a.628.628 0 01-.628.63zM15.09 59.1a.629.629 0 01-.629-.629V38.352a.593.593 0 01.028-.181l3.745-12.485v-9.968a.629.629 0 011.257 0v10.06a.575.575 0 01-.026.18l-3.746 12.487v20.028a.628.628 0 01-.629.627zM45.898 61.616h-10.59a.632.632 0 01-.576-.377 5.65 5.65 0 00-10.361 0 .631.631 0 01-.576.377h-10.59a.629.629 0 110-1.257h10.193a6.907 6.907 0 0112.309 0h10.192a.629.629 0 110 1.257zM29.551 70.418a6.915 6.915 0 01-6.154-3.772H13.204a.629.629 0 110-1.257h10.59a.629.629 0 01.576.376 5.649 5.649 0 0010.361 0 .63.63 0 01.576-.376h10.59a.629.629 0 110 1.257H35.706a6.916 6.916 0 01-6.155 3.772zM32.065 55.328a.629.629 0 01-.629-.629V19.491a.629.629 0 111.257 0v35.211a.628.628 0 01-.628.626zM27.036 55.328a.629.629 0 01-.629-.629V19.491a.629.629 0 111.257 0v35.211a.628.628 0 01-.628.626zM32.695 17.6h-6.287a.629.629 0 01-.629-.629v-5.03a1.888 1.888 0 011.886-1.886h3.772a1.888 1.888 0 011.886 1.886v5.03a.628.628 0 01-.628.629zm-5.659-1.258h5.03v-4.4a.629.629 0 00-.629-.629h-3.772a.63.63 0 00-.629.629zM7.541 21.377H3.769a3.777 3.777 0 01-3.772-3.772V3.772A3.776 3.776 0 013.769 0h3.772a3.775 3.775 0 013.772 3.772v13.832a3.776 3.776 0 01-3.772 3.773zM3.769 1.258a2.518 2.518 0 00-2.515 2.515v13.832a2.518 2.518 0 002.515 2.515h3.772a2.518 2.518 0 002.515-2.515V3.772a2.518 2.518 0 00-2.515-2.515z" fill="#263238"/><path fill="#40c4ff" d="M.629 5.657L3.773 4.4"/><path d="M.628 6.287a.629.629 0 01-.233-1.213l3.146-1.262a.629.629 0 01.466 1.168L.863 6.238a.613.613 0 01-.235.049z" fill="#263238"/><path fill="#40c4ff" d="M.629 11.945l3.144-1.257"/><path d="M.628 12.574a.63.63 0 01-.233-1.214l3.146-1.261a.629.629 0 01.466 1.168L.863 12.524a.611.611 0 01-.235.05z" fill="#263238"/><path fill="#40c4ff" d="M.629 18.233l3.144-1.257"/><path d="M.628 18.862a.63.63 0 01-.233-1.214l3.146-1.261a.629.629 0 01.466 1.168L.863 18.812a.612.612 0 01-.235.05zM7.541 74.19H3.769a3.777 3.777 0 01-3.772-3.772V56.585a3.776 3.776 0 013.772-3.772h3.772a3.775 3.775 0 013.772 3.772v13.832a3.776 3.776 0 01-3.772 3.773zM3.769 54.071a2.518 2.518 0 00-2.515 2.515v13.832a2.518 2.518 0 002.515 2.515h3.772a2.518 2.518 0 002.515-2.515V56.585a2.518 2.518 0 00-2.515-2.515z" fill="#263238"/><path fill="#40c4ff" d="M.629 58.471l3.144-1.257"/><path d="M.628 59.1a.63.63 0 01-.233-1.214l3.146-1.261a.629.629 0 01.466 1.168L.863 59.051a.612.612 0 01-.235.049z" fill="#263238"/><path fill="#40c4ff" d="M.629 64.758l3.144-1.257"/><path d="M.628 65.387a.629.629 0 01-.233-1.213l3.146-1.262a.629.629 0 01.466 1.168L.863 65.337a.612.612 0 01-.235.05z" fill="#263238"/><path fill="#40c4ff" d="M.629 71.045l3.144-1.257"/><path d="M.628 71.674a.63.63 0 01-.233-1.214l3.146-1.261a.629.629 0 01.466 1.168L.863 71.625a.613.613 0 01-.235.049zM55.324 21.377h-3.772a3.777 3.777 0 01-3.772-3.772V3.772A3.776 3.776 0 0151.552 0h3.772a3.775 3.775 0 013.772 3.772v13.832a3.776 3.776 0 01-3.772 3.773zM51.552 1.258a2.518 2.518 0 00-2.515 2.515v13.832a2.518 2.518 0 002.515 2.515h3.772a2.517 2.517 0 002.515-2.515V3.772a2.517 2.517 0 00-2.515-2.515z" fill="#263238"/><path fill="#40c4ff" d="M58.472 5.657L55.328 4.4"/><path d="M58.471 6.287a.607.607 0 01-.233-.045l-3.144-1.258a.629.629 0 01.466-1.168l3.144 1.257a.629.629 0 01-.234 1.213z" fill="#263238"/><path fill="#40c4ff" d="M58.472 11.945l-3.144-1.257"/><path d="M58.471 12.575a.605.605 0 01-.233-.045l-3.144-1.257a.629.629 0 01.466-1.168l3.144 1.257a.63.63 0 01-.234 1.214z" fill="#263238"/><path fill="#40c4ff" d="M58.472 18.233l-3.144-1.257"/><path d="M58.471 18.862a.606.606 0 01-.233-.045l-3.144-1.257a.629.629 0 01.466-1.168l3.144 1.257a.63.63 0 01-.234 1.214z" fill="#263238"/><g><path d="M55.324 74.19h-3.772a3.777 3.777 0 01-3.772-3.772V56.585a3.776 3.776 0 013.772-3.772h3.772a3.775 3.775 0 013.772 3.772v13.832a3.776 3.776 0 01-3.772 3.773zm-3.772-20.119a2.518 2.518 0 00-2.515 2.515v13.832a2.518 2.518 0 002.515 2.515h3.772a2.517 2.517 0 002.515-2.515V56.585a2.517 2.517 0 00-2.515-2.515z" fill="#263238"/></g><g><path fill="#40c4ff" d="M58.472 58.471l-3.144-1.257"/><path d="M58.471 59.101a.606.606 0 01-.233-.045l-3.144-1.258a.629.629 0 01.466-1.168l3.144 1.257a.63.63 0 01-.234 1.214z" fill="#263238"/></g><g><path fill="#40c4ff" d="M58.472 64.759l-3.144-1.257"/><path d="M58.471 65.388a.606.606 0 01-.233-.045l-3.144-1.257a.629.629 0 01.466-1.168l3.144 1.257a.629.629 0 01-.234 1.213z" fill="#263238"/></g><g><path fill="#40c4ff" d="M58.472 71.046l-3.144-1.257"/><path d="M58.471 71.675a.607.607 0 01-.233-.045l-3.144-1.257a.629.629 0 01.466-1.168l3.144 1.258a.629.629 0 01-.234 1.213z" fill="#263238"/></g><g><path d="M5.659 47.155a.629.629 0 01-.629-.629v-1.257a.629.629 0 111.257 0v1.257a.628.628 0 01-.628.629z" fill="#263238"/></g><g><path d="M5.659 43.382a.629.629 0 01-.629-.629V27.664a.629.629 0 111.257 0v15.089a.628.628 0 01-.628.629z" fill="#263238"/></g><g><path d="M53.442 47.155a.629.629 0 01-.629-.629v-1.257a.629.629 0 111.257 0v1.257a.628.628 0 01-.628.629z" fill="#263238"/></g><g><path d="M53.442 43.382a.629.629 0 01-.629-.629V27.664a.629.629 0 111.257 0v15.089a.628.628 0 01-.628.629z" fill="#263238"/></g></svg>