<svg xmlns="http://www.w3.org/2000/svg" width="80.916" height="74.594" viewBox="0 0 80.916 74.594"><path d="M69.537 74.595H44.251a3.8 3.8 0 01-3.793-3.793V55.63a.632.632 0 011.264 0v15.172a2.531 2.531 0 002.529 2.529h25.286a2.531 2.531 0 002.529-2.529v-6.829a.632.632 0 111.264 0v6.829a3.8 3.8 0 01-3.793 3.793z" fill="#263238"/><path d="M33.504 69.538a33.5 33.5 0 1133.5-33.5 33.542 33.542 0 01-33.5 33.5zm0-65.744a32.24 32.24 0 1032.24 32.24 32.277 32.277 0 00-32.24-32.241z" fill="#263238"/><path d="M33.504 56.894a20.861 20.861 0 1120.861-20.861 20.885 20.885 0 01-20.861 20.861zm0-40.458a19.6 19.6 0 1019.6 19.6 19.619 19.619 0 00-19.6-19.6z" fill="#263238"/><path d="M33.504 59.423a23.39 23.39 0 1123.39-23.39 23.416 23.416 0 01-23.39 23.39zm0-45.515a22.125 22.125 0 1022.125 22.125 22.151 22.151 0 00-22.125-22.126z" fill="#263238"/><path d="M50.154 41.996l-6.748-3.9a10.106 10.106 0 000-4.134l6.748-3.9a17.678 17.678 0 00-3.156-5.478l-6.763 3.905a10.079 10.079 0 00-3.57-2.059v-7.8a16.964 16.964 0 00-6.322 0v7.8a10.073 10.073 0 00-3.57 2.068l-6.763-3.905a17.678 17.678 0 00-3.156 5.478l6.748 3.9a10.165 10.165 0 000 4.134l-6.748 3.9a17.672 17.672 0 003.156 5.477l6.763-3.9a10.093 10.093 0 003.57 2.068v7.8a16.889 16.889 0 006.322 0v-7.8a10.1 10.1 0 003.571-2.077l6.763 3.9a17.647 17.647 0 003.155-5.477zm-16.648-.905a5.057 5.057 0 115.057-5.057 5.057 5.057 0 01-5.057 5.057z" fill="#59d8fd"/><path d="M36.665 54.067a.632.632 0 01-.632-.632v-7.8a.632.632 0 01.435-.6 9.382 9.382 0 003.345-1.94.638.638 0 01.738-.076l6.763 3.9a.634.634 0 01-.632 1.1l-6.376-3.682a10.616 10.616 0 01-3.009 1.744v7.352a.631.631 0 01-.632.634zm-6.322 0a.632.632 0 01-.632-.632v-7.353a10.669 10.669 0 01-3.009-1.744l-6.375 3.682a.634.634 0 01-.632-1.1l6.763-3.9a.636.636 0 01.738.076 9.393 9.393 0 003.345 1.94.632.632 0 01.434.6v7.8a.631.631 0 01-.631.631zm19.809-11.439a.629.629 0 01-.315-.085l-6.748-3.9a.632.632 0 01-.3-.676 9.562 9.562 0 000-3.876.631.631 0 01.3-.676l6.748-3.9a.632.632 0 01.632 1.095l-6.361 3.672a10.8 10.8 0 010 3.486l6.361 3.672a.633.633 0 01-.317 1.181zm-33.3 0a.633.633 0 01-.317-1.181l6.361-3.672a10.7 10.7 0 010-3.486l-6.361-3.672a.632.632 0 01.632-1.095l6.748 3.9a.634.634 0 01.3.676 9.443 9.443 0 000 3.876.635.635 0 01-.3.676l-6.748 3.9a.629.629 0 01-.31.077zm16.647-.905a5.689 5.689 0 115.689-5.689 5.7 5.7 0 01-5.683 5.688zm0-10.115a4.425 4.425 0 104.425 4.425 4.431 4.431 0 00-4.419-4.426zm6.731-2.478a.63.63 0 01-.421-.162 9.417 9.417 0 00-3.347-1.938.632.632 0 01-.435-.6v-7.8a.632.632 0 011.264 0v7.353a10.587 10.587 0 013.009 1.743l6.376-3.682a.632.632 0 11.632 1.095l-6.763 3.905a.63.63 0 01-.312.085zm-13.46 0a.63.63 0 01-.316-.085L19.69 25.14a.632.632 0 11.632-1.095l6.376 3.682a10.633 10.633 0 013.008-1.743v-7.353a.632.632 0 011.264 0v7.8a.632.632 0 01-.434.6 9.408 9.408 0 00-3.345 1.938.632.632 0 01-.415.16zM33.504 6.322a.632.632 0 01-.632-.632V3.161a.632.632 0 011.264 0V5.69a.632.632 0 01-.632.632zM33.504 69.537a.632.632 0 01-.632-.632v-2.529a.632.632 0 011.264 0v2.529a.632.632 0 01-.632.632zM66.377 36.665h-2.529a.632.632 0 010-1.264h2.529a.632.632 0 010 1.264zM3.161 36.665H.632a.632.632 0 010-1.264h2.529a.632.632 0 010 1.264zM54.961 15.208a.632.632 0 01-.446-1.078l1.788-1.789a.634.634 0 01.894.9l-1.788 1.788a.635.635 0 01-.448.179zM10.261 59.909a.633.633 0 01-.448-1.08l1.789-1.788a.632.632 0 11.894.894l-1.789 1.788a.628.628 0 01-.446.186zM56.75 59.909a.631.631 0 01-.448-.186l-1.788-1.788a.632.632 0 11.894-.894l1.791 1.785a.633.633 0 01-.446 1.08zM12.049 15.208a.63.63 0 01-.446-.185l-1.789-1.788a.634.634 0 11.894-.9l1.789 1.789a.632.632 0 01-.448 1.078zM45.117 8.632a.623.623 0 01-.242-.048.633.633 0 01-.343-.826L45.5 5.42a.632.632 0 111.167.484L45.7 8.24a.632.632 0 01-.583.392zM20.925 67.036a.632.632 0 01-.584-.875l.967-2.335a.632.632 0 111.168.484l-.967 2.335a.633.633 0 01-.584.391zM63.874 49.244a.623.623 0 01-.241-.048l-2.336-.967a.632.632 0 01.484-1.168l2.336.968a.632.632 0 01-.243 1.215zM5.472 25.054a.659.659 0 01-.243-.048l-2.336-.968a.632.632 0 01.484-1.168l2.336.969a.632.632 0 01-.242 1.216zM21.892 8.632a.632.632 0 01-.584-.391l-.967-2.336a.632.632 0 011.168-.484l.967 2.338a.631.631 0 01-.584.874zM46.086 67.036a.631.631 0 01-.584-.391l-.968-2.335a.632.632 0 111.168-.484l.967 2.335a.632.632 0 01-.583.875zM61.539 25.054a.632.632 0 01-.243-1.216l2.336-.969a.632.632 0 01.484 1.168l-2.336.968a.647.647 0 01-.241.049zM3.135 49.243a.632.632 0 01-.243-1.215l2.336-.968a.632.632 0 01.484 1.168l-2.336.967a.623.623 0 01-.241.048zM75.859 64.606h-6.322a.632.632 0 01-.632-.632v-5.057a.632.632 0 01.632-.632h6.322a.632.632 0 01.632.632v5.057a.631.631 0 01-.632.632zm-5.689-1.264h5.057v-3.793H70.17z" fill="#263238"/><g transform="translate(64.48 45.008)"><circle cx="7.586" cy="7.586" r="7.586" transform="translate(.633 .632)" fill="#edfafe"/><path d="M8.218 16.441a8.218 8.218 0 118.218-8.218 8.228 8.228 0 01-8.218 8.218zm0-15.172a6.954 6.954 0 106.954 6.954 6.963 6.963 0 00-6.954-6.959z" fill="#263238"/></g><path d="M72.698 53.858a.632.632 0 01-.632-.632v-4.425a.632.632 0 011.264 0v4.425a.631.631 0 01-.632.632zM59.422 5.057h-1.264a.632.632 0 110-1.264h1.264a.632.632 0 110 1.264zM74.594 5.057H61.951a.632.632 0 110-1.264h12.643a.632.632 0 110 1.264zM78.387 1.264H65.744a.632.632 0 010-1.264h12.643a.632.632 0 010 1.264z" fill="#263238"/></svg>