<svg xmlns="http://www.w3.org/2000/svg" width="67.688" height="76" viewBox="0 0 67.688 76"><path d="M41.562 36.813a.594.594 0 01-.594-.594V14.785a2.377 2.377 0 00-1.2-2.062l-2.523-1.442h-6.809l-2.525 1.442a2.382 2.382 0 00-1.2 2.062v21.434a.594.594 0 01-1.187 0V14.785a3.569 3.569 0 011.8-3.092l2.661-1.52a.582.582 0 01.294-.078h7.124a.594.594 0 01.294.078l2.661 1.52a3.568 3.568 0 011.794 3.092v21.434a.593.593 0 01-.59.594z" fill="#263238"/><path d="M41.566 55.219v10.094a2.97 2.97 0 01-2.969 2.969h-9.5a2.969 2.969 0 01-2.969-2.969V55.219" fill="#59d8fd"/><path d="M38.594 68.875h-9.5a3.567 3.567 0 01-3.562-3.562V55.219a.594.594 0 011.188 0v10.094a2.377 2.377 0 002.375 2.375h9.5a2.377 2.377 0 002.375-2.375V55.219a.594.594 0 011.188 0v10.094a3.566 3.566 0 01-3.564 3.562zM45.122 43.94H22.563a1.784 1.784 0 01-1.782-1.781v-2.375a1.784 1.784 0 011.782-1.781h22.559a1.783 1.783 0 011.781 1.781v2.375a1.783 1.783 0 01-1.781 1.781zm-22.561-4.75a.6.6 0 00-.595.594v2.375a.6.6 0 00.595.594h22.561a.594.594 0 00.594-.594v-2.375a.594.594 0 00-.594-.594z" fill="#263238"/><g transform="translate(22.562 42.75)"><rect width="21.375" height="9.5" rx="2" transform="translate(.594 .593)" fill="none"/><path d="M19.594 10.687H2.969A2.973 2.973 0 010 7.718v-4.75A2.972 2.972 0 012.969-.001h16.625a2.971 2.971 0 012.969 2.969v4.75a2.972 2.972 0 01-2.969 2.969zm-16.625-9.5a1.783 1.783 0 00-1.781 1.781v4.75a1.783 1.783 0 001.781 1.781h16.625a1.783 1.783 0 001.781-1.781v-4.75a1.783 1.783 0 00-1.781-1.781z" fill="#263238"/></g><path d="M40.375 43.94H28.5a.594.594 0 01-.594-.594v-4.75a.593.593 0 01.594-.594h11.875a.592.592 0 01.594.594v4.75a.593.593 0 01-.594.594zm-11.281-1.187h10.688v-3.562H29.094z" fill="#263238"/><path d="M32.781.593h2.125a2.5 2.5 0 012.5 2.5v7.594h-7.125V3.093a2.5 2.5 0 012.5-2.5z" fill="#fff"/><path d="M37.406 11.281h-7.125a.594.594 0 01-.594-.594V3.562A3.566 3.566 0 0133.25 0h1.188a3.565 3.565 0 013.563 3.563v7.125a.593.593 0 01-.595.593zm-6.531-1.187h5.938V3.563a2.377 2.377 0 00-2.375-2.375h-1.187a2.378 2.378 0 00-2.375 2.375zM35.031 76h-4.156a3.567 3.567 0 01-3.562-3.562v-4.156a.594.594 0 011.188 0v4.156a2.377 2.377 0 002.375 2.375h4.156a.594.594 0 010 1.188zM33.843 73.028a.594.594 0 01-.483-.249l-2.968-4.151a.594.594 0 01.483-.938h5.936a.594.594 0 01.484.938l-2.969 4.156a.594.594 0 01-.483.244zm-1.815-4.156l1.815 2.54 1.816-2.54zM26.125 64.125a.594.594 0 01-.09-1.18l15.438-2.375a.594.594 0 11.182 1.173l-15.437 2.375a.6.6 0 01-.093.007zM26.125 58.187a.594.594 0 01-.09-1.18l15.438-2.375a.594.594 0 11.182 1.173L26.218 58.18a.6.6 0 01-.093.007zM41.562 16.032H26.125a.594.594 0 010-1.187h15.437a.594.594 0 010 1.188zM41.562 24.344H26.125a.594.594 0 010-1.187h15.437a.594.594 0 010 1.188zM41.562 20.188H26.125a.594.594 0 010-1.187h15.437a.594.594 0 010 1.188z" fill="#263238"/><path d="M37.406 4.157h-7.125a.594.594 0 010-1.187h7.125a.594.594 0 010 1.188zM37.406 8.313h-7.125a.594.594 0 010-1.187h7.125a.594.594 0 010 1.188zM21.44 66.797a.6.6 0 01-.228-.045L4.756 59.935a.595.595 0 11.455-1.1l16.456 6.816a.594.594 0 01-.227 1.142zM2.789 59.071a.6.6 0 01-.228-.045l-2.194-.908a.595.595 0 11.455-1.1l2.194.908a.594.594 0 01-.227 1.142zM19.001 56.378a.594.594 0 01-.514-.3L9.581 40.652a.594.594 0 111.028-.594l8.906 15.426a.594.594 0 01-.514.891zM8.907 38.896a.594.594 0 01-.514-.3l-1.189-2.057a.594.594 0 011.028-.594l1.189 2.057a.594.594 0 01-.514.891zM46.249 66.797a.594.594 0 01-.228-1.142l16.458-6.816a.595.595 0 11.454 1.1l-16.456 6.817a.59.59 0 01-.228.041zM64.9 59.071a.594.594 0 01-.228-1.142l2.195-.908a.595.595 0 01.455 1.1l-2.194.908a.586.586 0 01-.228.042zM48.688 56.379a.6.6 0 01-.3-.08.593.593 0 01-.216-.811l8.906-15.426a.593.593 0 111.027.594l-8.906 15.426a.594.594 0 01-.511.297z" fill="#263238"/><g><path d="M58.781 38.896a.6.6 0 01-.3-.08.592.592 0 01-.216-.811l1.188-2.057a.593.593 0 111.027.594l-1.187 2.057a.594.594 0 01-.512.297z" fill="#263238"/></g><g><path d="M57.649 9.065l-.094.407a8.229 8.229 0 01-4.723 5.677V.89l-6.061 10.29a7.412 7.412 0 00.932 8.94 7.2 7.2 0 0010.26 0 7.414 7.414 0 00.931-8.94z" fill="#edfafe"/><path d="M52.834 22.86a7.74 7.74 0 01-5.554-2.326 7.983 7.983 0 01-1.021-9.658L52.321.587a.594.594 0 011.106.3v13.289a7.67 7.67 0 003.549-4.841l.1-.409a.594.594 0 011.09-.166l1.245 2.111a7.983 7.983 0 01-1.02 9.658 7.738 7.738 0 01-5.557 2.331zm-.595-19.792l-4.957 8.411a6.791 6.791 0 00.844 8.221 6.6 6.6 0 009.412 0 6.792 6.792 0 00.843-8.221l-.533-.906a8.862 8.862 0 01-4.779 5.122.594.594 0 01-.831-.544z" fill="#263238"/></g></svg>