<svg xmlns="http://www.w3.org/2000/svg" width="58.12" height="79.142" viewBox="0 0 58.12 79.142"><path d="M41.426 47.609H14.221a.619.619 0 01-.618-.618V43.9a1.857 1.857 0 011.855-1.855H40.19a1.857 1.857 0 011.855 1.855v3.091a.618.618 0 01-.619.618zm-26.587-1.237h25.969v-2.473a.619.619 0 00-.618-.618H15.458a.619.619 0 00-.618.618z" fill="#263238"/><path d="M11.129 46.991h33.389a3.091 3.091 0 013.091 3.091v7.42H8.038v-7.42a3.091 3.091 0 013.091-3.091z" fill="#59d8fd"/><path d="M47.609 58.121H8.038a.618.618 0 01-.618-.618v-7.42a3.714 3.714 0 013.71-3.71h33.388a3.713 3.713 0 013.71 3.71v7.42a.618.618 0 01-.619.618zM8.656 56.884H46.99v-6.8a2.476 2.476 0 00-2.473-2.473H11.13a2.477 2.477 0 00-2.473 2.473zM37.716 79.143a.618.618 0 01-.618-.618V59.976a.619.619 0 011.237 0v18.549a.618.618 0 01-.619.618zM17.931 79.143a.619.619 0 01-.618-.618V59.976a.619.619 0 011.237 0v18.549a.618.618 0 01-.619.618zM37.717 40.808a.619.619 0 01-.618-.618V14.013a5.6 5.6 0 00-2.7-4.772l-2.008-1.2a3.717 3.717 0 01-1.731-2.453l-.482-2.419a2.4 2.4 0 00-4.7 0l-.483 2.417a3.715 3.715 0 01-1.73 2.455L21.253 9.24a5.594 5.594 0 00-2.7 4.772v26.177a.619.619 0 01-1.237 0V14.012a6.833 6.833 0 013.3-5.832l2.008-1.206a2.477 2.477 0 001.154-1.636l.484-2.416a3.634 3.634 0 017.128 0l.484 2.417a2.48 2.48 0 001.153 1.635l2.008 1.206a6.833 6.833 0 013.3 5.832v26.177a.618.618 0 01-.618.619z" fill="#263238"/><path d="M52.556 58.124H3.092a.619.619 0 010-1.237h49.464a.619.619 0 010 1.237zM37.717 66.78H17.931a.619.619 0 110-1.237h19.786a.619.619 0 010 1.237z" fill="#263238"/><path d="M29.679 76.67h-3.71a1.857 1.857 0 01-1.855-1.855v-8.656a.618.618 0 01.618-.618h6.183a.617.617 0 01.618.618v8.656a1.857 1.857 0 01-1.854 1.855zm-4.325-9.89v8.038a.62.62 0 00.618.618h3.71a.619.619 0 00.618-.618V66.78zM33.199 36.503H22.448a1.857 1.857 0 01-1.855-1.855v-1.211a1.857 1.857 0 011.855-1.855h10.751a1.857 1.857 0 011.855 1.855v1.211a1.857 1.857 0 01-1.855 1.855zm-10.751-3.684a.619.619 0 00-.618.618v1.211a.619.619 0 00.618.618h10.751a.619.619 0 00.618-.618v-1.211a.619.619 0 00-.618-.618z" fill="#263238"/><path d="M24.732 32.82a.619.619 0 01-.618-.618V19.168a3.71 3.71 0 017.42 0v3.141a.619.619 0 11-1.237 0v-3.141a2.473 2.473 0 00-4.946 0v13.03a.618.618 0 01-.619.622zM30.915 40.808a.619.619 0 01-.618-.618v-4.3a.619.619 0 111.237 0v4.3a.618.618 0 01-.619.618zM24.732 40.808a.619.619 0 01-.618-.618v-4.3a.619.619 0 111.237 0v4.3a.618.618 0 01-.619.618z" fill="#263238"/><path d="M33.389 25.4h-4.946a.619.619 0 010-1.237h4.946a.619.619 0 010 1.237zM30.915 32.819a.619.619 0 01-.618-.618v-4.946a.619.619 0 011.237 0v4.946a.618.618 0 01-.619.618zM4.946 15.458a.62.62 0 01-.586-.423l-.6-1.794a2.454 2.454 0 00-1.545-1.545l-1.793-.6a.618.618 0 010-1.173l1.793-.6A2.457 2.457 0 003.76 7.778l.6-1.794a.618.618 0 01.586-.423.617.617 0 01.587.423l.6 1.794a2.457 2.457 0 001.545 1.545l1.8.6a.619.619 0 010 1.173l-1.8.6a2.454 2.454 0 00-1.545 1.545l-.6 1.794a.619.619 0 01-.587.423zm-2.373-4.946l.035.011a3.7 3.7 0 012.327 2.326l.011.036.011-.036a3.7 3.7 0 012.327-2.326l.033-.011-.033-.011a3.7 3.7 0 01-2.327-2.327l-.011-.035-.011.035a3.7 3.7 0 01-2.327 2.327zM53.174 44.518a.62.62 0 01-.586-.423l-.6-1.794a2.454 2.454 0 00-1.544-1.544l-1.793-.6a.618.618 0 010-1.174l1.793-.6a2.457 2.457 0 001.544-1.545l.6-1.794a.618.618 0 01.586-.423.617.617 0 01.587.423l.6 1.794a2.457 2.457 0 001.545 1.545l1.8.6a.619.619 0 010 1.174l-1.8.6a2.454 2.454 0 00-1.545 1.544l-.6 1.794a.619.619 0 01-.587.423zm-2.373-4.946l.035.011a3.7 3.7 0 012.327 2.326l.011.036.011-.036a3.7 3.7 0 012.327-2.326l.033-.011-.033-.011a3.7 3.7 0 01-2.327-2.327l-.011-.035-.011.035a3.7 3.7 0 01-2.327 2.327z" fill="#263238"/><g><path d="M27.823 74.196a.619.619 0 01-.618-.618v-2.473a.619.619 0 011.237 0v2.473a.618.618 0 01-.619.618z" fill="#263238"/></g></svg>