<svg xmlns="http://www.w3.org/2000/svg" width="93.795" height="85.039" viewBox="0 0 93.795 85.039"><path d="M51.432 57.818a2.258 2.258 0 01-1.6-3.856l23.428-23.43a2.259 2.259 0 013.194 3.194l-23.428 23.43a2.253 2.253 0 01-1.594.662z" fill="none"/><path d="M51.432 58.572a3.013 3.013 0 01-2.13-5.143l23.43-23.428a3.012 3.012 0 114.259 4.259l-23.43 23.43a2.992 2.992 0 01-2.129.882zm23.43-27.948a1.5 1.5 0 00-1.065.441l-23.43 23.43a1.505 1.505 0 000 2.13 1.544 1.544 0 002.13 0l23.43-23.43a1.506 1.506 0 00-1.065-2.571z" fill="#263238"/><path d="M46.902 72.997a2.26 2.26 0 01-1.6-3.857l12.672-12.672 5.157-15.469a2.258 2.258 0 114.285 1.429l-5.324 15.973a2.24 2.24 0 01-.547.884L48.496 72.333a2.254 2.254 0 01-1.594.664z" fill="#edfafe"/><path d="M46.902 73.751a3.012 3.012 0 01-2.13-5.142l12.547-12.547 5.1-15.3a3.012 3.012 0 115.715 1.905L62.81 58.64a3.032 3.032 0 01-.727 1.178l-13.056 13.05a2.992 2.992 0 01-2.125.883zm18.369-33.545a1.478 1.478 0 00-.664.158 1.5 1.5 0 00-.759.875l-5.157 15.467a.74.74 0 01-.182.295L45.837 69.673a1.505 1.505 0 000 2.13 1.544 1.544 0 002.13 0l13.05-13.049a1.51 1.51 0 00.365-.589l5.324-15.975a1.516 1.516 0 00-1.434-1.985z" fill="#263238"/><path d="M46.896 77.509a6.764 6.764 0 01-.443-13.514.753.753 0 11.1 1.5 5.257 5.257 0 105.574 5.6.776.776 0 01.8-.7.754.754 0 01.7.8 6.787 6.787 0 01-6.731 6.314z" fill="#263238"/><path d="M47.707 51.831l21.79-21.79a53.492 53.492 0 00-57.417 7.911 3.765 3.765 0 00-.172 5.5l16.038 16.04a3.737 3.737 0 004.874.411 23.19 23.19 0 0113.377-4.7 5.225 5.225 0 011.51-3.372zM81.714 37.952a53.715 53.715 0 00-2.929-2.337c-.069.078-.124.167-.2.241l-8.7 8.705-4.932 14.794a5.282 5.282 0 01-.47 1.006 3.847 3.847 0 001.366-.868l16.04-16.04a3.766 3.766 0 00-.175-5.501z" fill="#40c4ff"/><path d="M30.654 61.378a4.592 4.592 0 01-3.243-1.353L11.372 43.987a4.566 4.566 0 01-1.327-3.384 4.424 4.424 0 011.541-3.221 54.258 54.258 0 0158.227-8.024.754.754 0 11-.639 1.365 52.751 52.751 0 00-56.607 7.8 2.927 2.927 0 00-1.017 2.135 3.044 3.044 0 00.885 2.264l16.04 16.038a2.982 2.982 0 003.884.346 23.855 23.855 0 0113.812-4.854.753.753 0 11.044 1.506 22.352 22.352 0 00-12.945 4.547 4.311 4.311 0 01-2.616.873zM64.482 61.114a.754.754 0 01-.268-1.458 3.057 3.057 0 001.1-.7L81.351 42.92a3.04 3.04 0 00.887-2.264 2.925 2.925 0 00-1.02-2.135c-.852-.735-1.8-1.49-2.889-2.3a.754.754 0 01.9-1.206 55.826 55.826 0 012.968 2.369 4.417 4.417 0 011.542 3.222 4.568 4.568 0 01-1.328 3.384L66.373 60.028a4.631 4.631 0 01-1.631 1.041.8.8 0 01-.26.045z" fill="#263238"/><path d="M37.859 71.485H4.517A4.516 4.516 0 01.041 66.36l6.512-48.194a4.532 4.532 0 014.478-3.911h1.438a.753.753 0 110 1.506h-1.438a3.023 3.023 0 00-2.986 2.607l-6.512 48.2a3.013 3.013 0 002.985 3.416h33.341a.753.753 0 110 1.506zM89.276 71.485H55.932a.753.753 0 110-1.506h33.344a3.014 3.014 0 002.985-3.416l-6.512-48.194a3.024 3.024 0 00-2.985-2.608H29.035a.753.753 0 110-1.506h53.729a4.533 4.533 0 014.476 3.911l6.514 48.194a4.518 4.518 0 01-4.477 5.125zM20.75 21.033a.755.755 0 01-.715-.515l-.727-2.185a2.985 2.985 0 00-1.881-1.881l-2.185-.729a.753.753 0 010-1.429l2.185-.728a2.988 2.988 0 001.881-1.881l.727-2.185a.785.785 0 011.431 0l.729 2.185a2.992 2.992 0 001.881 1.881l2.184.728a.753.753 0 010 1.429l-2.184.729a2.988 2.988 0 00-1.881 1.881l-.729 2.185a.756.756 0 01-.716.515zm-2.889-6.024l.041.014a4.5 4.5 0 012.834 2.833l.014.044.015-.044a4.5 4.5 0 012.834-2.833l.041-.014-.041-.014a4.5 4.5 0 01-2.834-2.834l-.015-.042-.014.042a4.5 4.5 0 01-2.834 2.834zM33.552 11.996a.755.755 0 01-.715-.515l-.727-2.185a2.985 2.985 0 00-1.881-1.881l-2.185-.729a.753.753 0 010-1.429l2.185-.728a2.988 2.988 0 001.881-1.881l.727-2.185a.785.785 0 011.431 0l.729 2.185a2.992 2.992 0 001.881 1.881l2.184.728a.753.753 0 010 1.429l-2.184.729a2.988 2.988 0 00-1.881 1.881l-.729 2.185a.756.756 0 01-.716.515zm-2.889-6.024l.041.014a4.5 4.5 0 012.834 2.833l.014.044.015-.044a4.5 4.5 0 012.834-2.833l.041-.014-.041-.014a4.5 4.5 0 01-2.834-2.834l-.015-.042-.014.042a4.5 4.5 0 01-2.834 2.834z" fill="#263238"/><path d="M20.221 41.906a.753.753 0 01-.438-1.365 46.306 46.306 0 0127.115-8.684.753.753 0 110 1.506 44.824 44.824 0 00-26.239 8.4.735.735 0 01-.438.143z" fill="#263238"/><g><path d="M85.3 85.039H8.491a3.012 3.012 0 110-6.024H85.3a3.012 3.012 0 110 6.024zM8.491 80.521a1.506 1.506 0 000 3.012H85.3a1.506 1.506 0 000-3.012z" fill="#263238"/></g><g><path d="M51.415 33.36h-1.506a.753.753 0 110-1.506h1.506a.753.753 0 110 1.506z" fill="#263238"/></g></svg>