<svg xmlns="http://www.w3.org/2000/svg" width="72.723" height="78.891" viewBox="0 0 72.723 78.891"><path d="M55.875 36.321a3.873 3.873 0 01-2.754-1.142l-9.406-9.407a3.9 3.9 0 010-5.509 3.991 3.991 0 015.51 0l9.4 9.406a3.9 3.9 0 01-2.754 6.652zm-9.4-15.9a2.6 2.6 0 00-1.836 4.433l9.4 9.407a2.662 2.662 0 003.673 0 2.6 2.6 0 000-3.674l-9.4-9.406a2.58 2.58 0 00-1.842-.76z" fill="#263238"/><g transform="translate(6.493 4.87)"><rect width="16.882" height="7.792" rx="1" transform="translate(.65 .649)" fill="#59d8fd"/><path d="M16.233 9.09H1.948A1.95 1.95 0 010 7.142V1.948A1.95 1.95 0 011.948 0h14.285a1.949 1.949 0 011.948 1.948v5.194a1.95 1.95 0 01-1.948 1.948zM1.948 1.298a.65.65 0 00-.649.649v5.194a.651.651 0 00.649.649h14.285a.65.65 0 00.649-.649V1.947a.65.65 0 00-.649-.649z" fill="#263238"/></g><path d="M19.935 34.089h15.972a5 5 0 015 5V67.95a2.5 2.5 0 01-2.5 2.5H17.435a2.5 2.5 0 01-2.5-2.5V39.089a5 5 0 015-5z" fill="#edfafe"/><path d="M37.66 71.105H18.181a3.9 3.9 0 01-3.9-3.9V40.583a7.152 7.152 0 017.142-7.142h12.986a7.151 7.151 0 017.142 7.142v26.622a3.9 3.9 0 01-3.891 3.9zM21.426 34.739a5.85 5.85 0 00-5.844 5.844v26.622a2.6 2.6 0 002.6 2.6h19.479a2.6 2.6 0 002.6-2.6V40.583a5.849 5.849 0 00-5.844-5.844z" fill="#263238"/><path d="M59.087 78.892H13.634a7.152 7.152 0 01-7.142-7.142V17.207a1.95 1.95 0 011.948-1.948h14.285a1.949 1.949 0 011.948 1.948v1.3a.65.65 0 01-1.3 0v-1.3a.65.65 0 00-.649-.649H8.441a.65.65 0 00-.649.649v54.542a5.851 5.851 0 005.844 5.844h45.452a5.85 5.85 0 005.844-5.844V32.883a5.81 5.81 0 00-1.71-4.134L50.144 15.672a5.807 5.807 0 00-4.134-1.712H35.934a2.581 2.581 0 00-1.993.934l-5.522 6.624a.648.648 0 01-.5.234H14.934a.65.65 0 010-1.3h12.682l5.327-6.391a3.877 3.877 0 012.991-1.4h10.075a7.092 7.092 0 015.052 2.092l13.073 13.074a7.1 7.1 0 012.091 5.052v38.866a7.151 7.151 0 01-7.138 7.147z" fill="#263238"/><path d="M65.583 71.099h-9.09a1.95 1.95 0 01-1.948-1.948v-2.6a1.95 1.95 0 011.948-1.948h9.09a.648.648 0 01.649.649v5.195a.649.649 0 01-.649.652zm-9.09-5.194a.65.65 0 00-.649.649v2.6a.651.651 0 00.649.649h8.441v-3.9zM65.583 59.412h-9.09a1.95 1.95 0 01-1.948-1.948v-2.6a1.95 1.95 0 011.948-1.948h9.09a.648.648 0 01.649.649v5.194a.649.649 0 01-.649.653zm-9.09-5.194a.65.65 0 00-.649.649v2.6a.651.651 0 00.649.649h8.441v-3.9zM65.583 47.724h-9.09a1.95 1.95 0 01-1.948-1.948v-2.6a1.95 1.95 0 011.948-1.948h9.09a.648.648 0 01.649.649v5.194a.649.649 0 01-.649.653zm-9.09-5.194a.65.65 0 00-.649.649v2.6a.651.651 0 00.649.649h8.441v-3.9z" fill="#263238"/><path d="M32.44 60.079a6.492 6.492 0 001.074-7.957l-5.593-9.493-5.594 9.493a6.492 6.492 0 001.074 7.957 6.491 6.491 0 009.039 0z" fill="#fff"/><path d="M27.918 62.574a7.157 7.157 0 01-6.153-10.781L27.36 42.3a.674.674 0 011.118 0l5.595 9.493a7.121 7.121 0 01-1.183 8.754 7.117 7.117 0 01-4.972 2.027zm0-18.666l-5.035 8.544a5.844 5.844 0 009.1 7.162 5.827 5.827 0 00.966-7.162zm4.521 16.172zM71.301 3.896h-5.194a.65.65 0 110-1.3h5.194a.65.65 0 110 1.3z" fill="#263238"/><path d="M68.703 6.493a.649.649 0 01-.649-.649V.65a.65.65 0 111.3 0v5.194a.65.65 0 01-.651.649zM62.211 12.987h-5.194a.65.65 0 010-1.3h5.194a.65.65 0 010 1.3z" fill="#263238"/><path d="M59.613 15.583a.649.649 0 01-.649-.649V9.739a.65.65 0 011.3 0v5.195a.65.65 0 01-.651.649zM72.073 56.519a.649.649 0 01-.649-.649v-1.278a.65.65 0 111.3 0v1.278a.648.648 0 01-.651.649zM72.073 72.401a.65.65 0 01-.649-.649V58.431a.65.65 0 111.3 0v13.321a.649.649 0 01-.651.649zM.649 37.67A.649.649 0 010 37.021v-1.3a.65.65 0 011.3 0v1.3a.649.649 0 01-.651.649zM.649 33.775A.65.65 0 010 33.126V20.14a.65.65 0 011.3 0v12.986a.649.649 0 01-.651.649z" fill="#263238"/><g><path d="M12.337 13.96a.65.65 0 01-.649-.649V5.519a.65.65 0 011.3 0v7.792a.649.649 0 01-.651.649z" fill="#263238"/></g><g><path d="M18.83 13.96a.65.65 0 01-.649-.649V5.519a.65.65 0 011.3 0v7.792a.649.649 0 01-.651.649z" fill="#263238"/></g></svg>