<svg xmlns="http://www.w3.org/2000/svg" width="79.82" height="69.842" viewBox="0 0 79.82 69.842"><path d="M33.045 55.34a6.863 6.863 0 01-6.853-6.859V29.612A13.094 13.094 0 0140.22 16.549l29.492 2.106a9.978 9.978 0 019.224 10.873l-.448 4.845a22.457 22.457 0 01-21.786 20.373l-23.478.595zm23.642-1.221zm-17.429-36.36a11.849 11.849 0 00-11.818 11.85v18.872a5.61 5.61 0 005.755 5.61l23.477-.595a21.206 21.206 0 0020.575-19.239l.449-4.847a8.728 8.728 0 00-8.071-9.513l-29.492-2.106a12.293 12.293 0 00-.875-.033z" fill="#263238"/><path d="M39.273 20.877q.316 0 .636.022l29.493 2.108a5.611 5.611 0 015.188 6.115l-.449 4.846a18.087 18.087 0 01-17.548 16.409l-23.478.595h-.066a2.5 2.5 0 01-2.491-2.494V29.607a8.733 8.733 0 018.715-8.731" fill="#59d8fd"/><path d="M33.128 51.597a3.136 3.136 0 01-3.194-3.117V29.608a9.349 9.349 0 0110.022-9.33l29.491 2.106a6.237 6.237 0 015.764 6.795l-.448 4.847a18.714 18.714 0 01-18.155 16.977l-23.478.595zm6.145-30.1a8.109 8.109 0 00-8.092 8.108v18.872a1.871 1.871 0 001.867 1.871l23.529-.6a17.465 17.465 0 0016.944-15.844l.448-4.847a4.987 4.987 0 00-4.611-5.435l-29.493-2.107c-.199-.007-.398-.015-.591-.015zM14.967 44.899H7.484a.624.624 0 01-.624-.624v-6.236a.624.624 0 011.247 0v5.617h6.86a.624.624 0 110 1.247z" fill="#263238"/><path d="M34.299 35.843a.623.623 0 01-.441-1.064l9.977-9.978a.624.624 0 01.882.882L34.74 35.66a.622.622 0 01-.441.183zM34.299 40.831a.623.623 0 01-.441-1.064l14.966-14.966a.624.624 0 01.882.882L34.74 40.649a.622.622 0 01-.441.182zM9.977 38.667H4.988a.624.624 0 01-.624-.624v-4.989a.623.623 0 01.624-.624h4.989a.622.622 0 01.624.624v4.989a.623.623 0 01-.624.624zM5.612 37.42h3.742v-3.742H5.612zM5.612 53.633H.623a.624.624 0 01-.624-.624V48.02a.623.623 0 01.624-.624h4.989a.622.622 0 01.624.624v4.989a.623.623 0 01-.624.624zm-4.365-1.247h3.742v-3.741H1.247z" fill="#263238"/><path d="M14.966 51.134H5.612a.624.624 0 110-1.247h9.354a.624.624 0 110 1.247z" fill="#263238"/><path d="M17.461 69.843h-1.247a1.873 1.873 0 01-1.871-1.871V5.613a1.873 1.873 0 011.871-1.871h1.247a1.872 1.872 0 011.871 1.871v62.359a1.872 1.872 0 01-1.871 1.871zM16.214 4.989a.624.624 0 00-.624.624v62.359a.625.625 0 00.624.624h1.247a.625.625 0 00.624-.624V5.613a.624.624 0 00-.624-.624zM21.201 55.795a.624.624 0 01-.451-1.054l5.44-5.726V33.988l-4.536 4.777a.624.624 0 01-.9-.861l5.612-5.908a.636.636 0 01.683-.15.625.625 0 01.392.58v16.837a.624.624 0 01-.171.429l-5.612 5.909a.622.622 0 01-.457.194zM76.702 6.24a.624.624 0 01-.624-.624V.627a.624.624 0 011.247 0v4.989a.623.623 0 01-.623.624z" fill="#263238"/><path d="M79.196 3.741h-4.989a.624.624 0 110-1.247h4.989a.624.624 0 110 1.247zM68.596 14.97a.624.624 0 01-.624-.624V9.357a.623.623 0 01.624-.624.623.623 0 01.624.624v4.989a.624.624 0 01-.624.624z" fill="#263238"/><path d="M71.089 12.472H66.1a.624.624 0 110-1.247h4.989a.624.624 0 010 1.247zM38.041 68.595h-1.247a.624.624 0 110-1.247h1.247a.624.624 0 110 1.247zM55.501 68.595H40.535a.624.624 0 110-1.247h14.966a.624.624 0 110 1.247zM63.607 64.853H62.36a.624.624 0 110-1.247h1.247a.624.624 0 110 1.247z" fill="#263238"/><g><path d="M59.865 64.853H44.899a.624.624 0 110-1.247h14.966a.624.624 0 110 1.247z" fill="#263238"/></g></svg>