<svg xmlns="http://www.w3.org/2000/svg" width="73.096" height="74.584" viewBox="0 0 73.096 74.584"><path fill="#59d8fd" d="M1.3 35.3h22v7h-22zM32.3 35.3h22v7h-22z"/><path d="M28.226 74.288a24.829 24.829 0 01-13.951-4.262A25.056 25.056 0 015.23 59.045a24.83 24.83 0 01-1.959-9.713v-6.55H1.478a.435.435 0 01-.435-.435v-5.943a.435.435 0 01.435-.435h1.793V14.788l-.523-.3a.437.437 0 01-.219-.376V8.603H.735A.435.435 0 01.3 8.168V.738A.435.435 0 01.735.303h23.776a.436.436 0 01.435.435v7.43a.436.436 0 01-.435.435h-1.794v5.509a.438.438 0 01-.22.376l-.523.3v21.176h1.794a.435.435 0 01.435.435v5.943a.435.435 0 01-.435.435h-1.794v6.55a6.252 6.252 0 0012.5 0v-6.55H32.68a.435.435 0 01-.434-.435v-5.943a.435.435 0 01.434-.435h1.794v-2.536a24.135 24.135 0 0123.252-24.19l.592-.023.287-.517a.433.433 0 01.378-.224h5.51V6.68a.435.435 0 01.435-.435h7.429a.435.435 0 01.435.435v23.776a.435.435 0 01-.435.435h-7.429a.435.435 0 01-.435-.435v-1.794h-5.51a.426.426 0 01-.346-.174l-.422-.56-.679.174a5.807 5.807 0 00-4.358 5.624v2.241h1.794a.435.435 0 01.435.435v5.943a.435.435 0 01-.435.435h-1.794v6.55a25.245 25.245 0 01-.435 4.66.434.434 0 01-.424.355.46.46 0 01-.359-.189.429.429 0 01-.072-.329 24.35 24.35 0 00.42-4.5v-6.55H35.345v6.55a7.122 7.122 0 11-14.244 0v-6.55H4.138v6.55A24.084 24.084 0 0046.12 65.443a.436.436 0 01.325-.143.43.43 0 01.29.111.435.435 0 01.032.615 25.271 25.271 0 01-3.787 3.428 24.879 24.879 0 01-14.757 4.828zm4.893-32.375H54.54v-5.074H33.119zm-31.207 0h21.421v-5.074H1.912zm55.534-31.79a23.332 23.332 0 00-22.1 23.309v2.538h16.963v-2.241a6.688 6.688 0 015.391-6.553l.849-.166V10.06zM4.146 35.97h16.963V14.545H4.146zm61.226-5.944h6.56V7.115h-6.56zm-5.944-2.229h5.074v-5.079h-5.074zm0-5.944h5.074v-6.565h-5.074zm0-7.43h5.074V9.349h-5.074zm-42.651-.743h5.075V8.606h-5.075zm-7.429 0h6.56V8.606h-6.56zm-5.944 0h5.074V8.606H3.404zM1.175 7.736h22.907v-6.56H1.169z" fill="#263238" stroke="#263238" stroke-width=".6"/><path d="M23.415 67.706a.393.393 0 01-.109-.016 18.881 18.881 0 01-10.72-7.665.439.439 0 01-.065-.325.432.432 0 01.426-.355.434.434 0 01.359.189 18 18 0 0010.222 7.318.435.435 0 01-.113.855zM43.307 25.054a.444.444 0 01-.212-.056.437.437 0 01-.166-.593c.168-.3.348-.6.534-.888a18.5 18.5 0 016.976-6.4.408.408 0 01.2-.05.435.435 0 01.2.821 17.632 17.632 0 00-6.646 6.1c-.177.275-.347.56-.507.844a.438.438 0 01-.379.222z" fill="#263238" stroke="#263238" stroke-width=".6"/><circle cx=".435" cy=".435" r=".435" fill="#263238" stroke="#263238" stroke-width=".6" transform="translate(49.761 59.791)"/></svg>